<?xml version="1.0" encoding="UTF-8"?>
<svg xmlns="http://www.w3.org/2000/svg"
     viewBox="0 0 137.22 143.7">

  <!-- mask that cuts a hole for the eye -->
  <defs>
    <mask id="eye-hole">
      <!-- keep everything -->
      <rect width="100%" height="100%" fill="white"/>
      <!-- knock out the eye -->
      <circle cx="103.44" cy="10.83" r="3.48" fill="black"/>
    </mask>
  </defs>

  <!-- whole logo, with the mask applied -->
  <g fill="#231f20" mask="url(#eye-hole)">
    <path d="M109.74,15.86l4.76-6.91,12.97,1.18s9.76.43,9.76,10.2h-23.73l-3.76-4.48Z"/>
    <polygon points="0 136.29 32.74 118.7 37.3 101.43 7.98 114.3 0 136.29"/>
    <polygon points="18.14 89.38 9.12 109.09 38.93 96.71 45.94 84.33 18.14 89.38"/>
    <path d="M19.38,85.95l28.67-6.03,14.82-24.92-10.1-18.3s-23.51,17.81-33.39,49.25Z"/>
    <path d="M56.04,35.4l5.86-4.67,30.3,10.1,9.61-5.05s8.29,3.26,7.98,15.8c-.27,11.19-2.05,16.17-2.05,16.17l-13.05.02
             s4.13-12.39-3.37-21.41c0,0,4.36,10.79-.54,26.92-1.49,4.88-9.5,26.67-52.67,42.56
             c0,0,2.28-24.42,28.34-59.93l.73-1.08-11.16-19.44Z"/>
    <polygon points="47.08 116.74 55.55 127.33 59.62 122.04 60.27 109.09 47.08 116.74"/>
    <polygon points="65.97 115.11 78.35 107.78 78.35 120 73.96 125.05 65.97 115.11"/>
    <path d="M58.15,129.94l2.93-3.75,7.33,9.12h7.49l-1.97,4.56h-11.06
             s-5.21.65-7,2.93c0,0-1.22-3.58,5.62-6.52v-2.5l-3.34-3.86Z"/>
    <path d="M75.91,128.04l5.1-5.86,9.88,12.92,6.09.97s6.29.96,6.29,6.74
             c0,0-5.7-3.01-13.03-3.01s-13.11.57-14.33,3.91
             c0,0-.65-6.71,7.82-7.66l-.08-2.28-7.74-5.73Z"/>
    <path d="M64.18,106.64v6.52s35.84-18.24,43.17-42.84h-13.41s-1.41,19.38-29.76,36.33Z"/>
    <path d="M112.94,7.6s-5.43-7.6-18.24-7.6-18.9,6.73-18.9,6.73
             c0,0-8.36,4.89-11.62,20.96l27.91,9.99,9.34-4.83,10.43-10.89-5-5.89,6.08-8.47Z"/>
  </g>
</svg>
