<?xml version="1.0" encoding="UTF-8"?>
<svg width="800" height="400" xmlns="http://www.w3.org/2000/svg">
  <rect width="800" height="400" fill="white"/>
  <line x1="50" y1="350" x2="750" y2="350" stroke="black" stroke-width="2"/>
  <line x1="50" y1="50" x2="50" y2="350" stroke="black" stroke-width="2"/>
  <text x="400" y="30" text-anchor="middle" font-size="20" font-weight="bold">Losses per Episode</text>
  <text x="400" y="390" text-anchor="middle" font-size="14">Episode</text>
  <text x="15" y="200" text-anchor="middle" font-size="14" transform="rotate(-90 15 200)">Losses</text>
  <text x="50" y="370" text-anchor="middle" font-size="12">0</text>
  <text x="40" y="350" text-anchor="end" font-size="12">-0.1</text>
  <text x="218" y="370" text-anchor="middle" font-size="12">7</text>
  <text x="40" y="275" text-anchor="end" font-size="12">0.0</text>
  <text x="412" y="370" text-anchor="middle" font-size="12">15</text>
  <text x="40" y="200" text-anchor="end" font-size="12">0.2</text>
  <text x="581" y="370" text-anchor="middle" font-size="12">22</text>
  <text x="40" y="125" text-anchor="end" font-size="12">0.3</text>
  <text x="774" y="370" text-anchor="middle" font-size="12">30</text>
  <text x="40" y="50" text-anchor="end" font-size="12">0.5</text>
  <polyline points="50,350 74,272 98,277 122,81 146,104 170,123 194,83 218,79 243,69 267,50 291,92 315,85 339,130 363,126 387,286 412,284 436,282 460,318 484,316 508,316 532,326 556,282 581,284 605,284 629,285 653,286 677,286 701,286 725,286 750,286" fill="none" stroke="#2ca02c" stroke-width="2" opacity="0.8"/>
  <line x1="600" y1="70" x2="630" y2="70" stroke="#2ca02c" stroke-width="2"/>
  <text x="635" y="74" font-size="12">REINFORCE with baseline</text>
</svg>
