<?xml version="1.0" encoding="UTF-8"?>
<svg width="800" height="400" xmlns="http://www.w3.org/2000/svg">
  <rect width="800" height="400" fill="white"/>
  <line x1="50" y1="350" x2="750" y2="350" stroke="black" stroke-width="2"/>
  <line x1="50" y1="50" x2="50" y2="350" stroke="black" stroke-width="2"/>
  <text x="400" y="30" text-anchor="middle" font-size="20" font-weight="bold">Losses per Episode</text>
  <text x="400" y="390" text-anchor="middle" font-size="14">Episode</text>
  <text x="15" y="200" text-anchor="middle" font-size="14" transform="rotate(-90 15 200)">Losses</text>
  <text x="50" y="370" text-anchor="middle" font-size="12">0</text>
  <text x="40" y="350" text-anchor="end" font-size="12">-3.2</text>
  <text x="225" y="370" text-anchor="middle" font-size="12">125</text>
  <text x="40" y="275" text-anchor="end" font-size="12">219.4</text>
  <text x="400" y="370" text-anchor="middle" font-size="12">250</text>
  <text x="40" y="200" text-anchor="end" font-size="12">441.9</text>
  <text x="576" y="370" text-anchor="middle" font-size="12">375</text>
  <text x="40" y="125" text-anchor="end" font-size="12">664.5</text>
  <text x="751" y="370" text-anchor="middle" font-size="12">500</text>
  <text x="40" y="50" text-anchor="end" font-size="12">887.1</text>
  <polyline points="50,347 51,347 52,347 54,347 55,347 57,347 58,347 59,347 61,347 62,347 64,347 65,347 66,346 68,346 69,346 71,345 72,345 73,344 75,344 76,344 78,345 79,344 80,344 82,345 83,345 85,346 86,346 87,346 89,347 90,347 92,347 93,347 94,348 96,348 97,348 99,348 100,348 101,348 103,348 104,348 106,348 107,348 108,348 110,348 111,348 113,348 114,348 115,348 117,348 118,348 120,348 121,348 122,348 124,348 125,347 127,348 128,347 129,347 131,347 132,347 134,347 135,347 136,347 138,348 139,348 141,348 142,348 143,348 145,348 146,348 148,348 149,348 151,348 152,348 153,348 155,348 156,348 158,348 159,349 160,348 162,349 163,348 165,348 166,348 167,348 169,348 170,348 172,348 173,348 174,348 176,348 177,348 179,348 180,348 181,348 183,348 184,348 186,347 187,347 188,346 190,346 191,346 193,346 194,346 195,346 197,346 198,347 200,347 201,348 202,349 204,349 205,350 207,350 208,350 209,350 211,350 212,350 214,350 215,350 216,350 218,350 219,350 221,350 222,350 223,350 225,350 226,350 228,350 229,350 230,350 232,350 233,350 235,349 236,349 237,349 239,350 240,350 242,350 243,350 244,350 246,350 247,349 249,349 250,350 252,349 253,350 254,350 256,349 257,349 259,349 260,349 261,349 263,349 264,349 266,349 267,348 268,348 270,348 271,349 273,349 274,349 275,349 277,349 278,349 280,349 281,349 282,349 284,349 285,349 287,349 288,348 289,349 291,349 292,348 294,348 295,348 296,348 298,349 299,348 301,348 302,348 303,348 305,348 306,348 308,348 309,348 310,348 312,348 313,348 315,348 316,348 317,348 319,348 320,348 322,348 323,349 324,349 326,349 327,350 329,350 330,350 331,349 333,349 334,349 336,349 337,349 338,349 340,349 341,349 343,349 344,349 345,349 347,349 348,349 350,349 351,349 353,349 354,349 355,349 357,349 358,349 360,349 361,349 362,349 364,349 365,349 367,349 368,349 369,349 371,349 372,349 374,349 375,349 376,349 378,349 379,349 381,349 382,349 383,349 385,349 386,349 388,349 389,349 390,349 392,349 393,349 395,349 396,349 397,349 399,349 400,349 402,349 403,349 404,349 406,349 407,349 409,349 410,349 411,349 413,349 414,349 416,349 417,349 418,349 420,349 421,349 423,349 424,349 425,349 427,349 428,349 430,349 431,349 432,349 434,349 435,349 437,349 438,349 439,349 441,349 442,349 444,349 445,349 446,349 448,349 449,349 451,349 452,349 454,349 455,349 456,349 458,349 459,349 461,349 462,349 463,349 465,349 466,349 468,349 469,349 470,349 472,349 473,349 475,349 476,349 477,349 479,349 480,349 482,349 483,349 484,349 486,349 487,349 489,349 490,349 491,349 493,349 494,349 496,349 497,350 498,350 500,350 501,350 503,350 504,350 505,350 507,350 508,350 510,350 511,350 512,350 514,350 515,350 517,350 518,350 519,350 521,350 522,350 524,350 525,350 526,350 528,350 529,350 531,350 532,350 533,350 535,350 536,350 538,349 539,349 540,350 542,349 543,349 545,349 546,349 547,349 549,349 550,349 552,349 553,349 555,349 556,349 557,349 559,349 560,349 562,349 563,349 564,349 566,349 567,349 569,349 570,349 571,349 573,349 574,349 576,349 577,349 578,349 580,349 581,349 583,349 584,349 585,349 587,349 588,349 590,349 591,349 592,349 594,349 595,349 597,349 598,349 599,349 601,349 602,349 604,349 605,349 606,349 608,349 609,349 611,349 612,349 613,349 615,349 616,349 618,349 619,349 620,349 622,349 623,349 625,349 626,349 627,349 629,349 630,349 632,349 633,349 634,349 636,349 637,349 639,349 640,349 641,349 643,349 644,349 646,349 647,349 648,349 650,349 651,349 653,349 654,349 656,349 657,349 658,349 660,349 661,349 663,349 664,349 665,349 667,349 668,349 670,349 671,349 672,349 674,349 675,349 677,349 678,349 679,349 681,349 682,349 684,349 685,349 686,349 688,349 689,349 691,349 692,349 693,349 695,349 696,349 698,349 699,349 700,349 702,349 703,349 705,349 706,349 707,349 709,349 710,349 712,349 713,349 714,349 716,349 717,349 719,349 720,349 721,349 723,349 724,349 726,349 727,349 728,349 730,349 731,349 733,349 734,349 735,349 737,349 738,349 740,349 741,349 742,349 744,349 745,349 747,349 748,349 750,349" fill="none" stroke="#2ca02c" stroke-width="2" opacity="0.8"/>
  <polyline points="50,80 51,50 52,88 54,116 55,139 57,116 58,160 59,207 61,175 62,210 64,210 65,227 66,270 68,269 69,269 71,269 72,311 73,311 75,290 76,321 78,321 79,321 80,321 82,285 83,285 85,284 86,284 87,284 89,284 90,304 92,304 93,304 94,304 96,303 97,321 99,281 100,281 101,280 103,280 104,280 106,279 107,279 108,279 110,279 111,279 113,297 114,336 115,336 117,337 118,337 120,337 121,337 122,337 124,338 125,338 127,338 128,338 129,339 131,339 132,339 134,340 135,340 136,340 138,340 139,340 141,340 142,341 143,341 145,341 146,342 148,342 149,342 151,317 152,318 153,318 155,318 156,319 158,319 159,319 160,319 162,319 163,319 165,320 166,320 167,288 169,239 170,195 172,154 173,154 174,154 176,154 177,154 179,154 180,107 181,131 183,164 184,182 186,227 187,235 188,235 190,191 191,148 193,148 194,148 195,195 197,194 198,194 200,224 201,224 202,257 204,257 205,301 207,343 208,342 209,342 211,342 212,343 214,324 215,324 216,324 218,323 219,304 221,305 222,268 223,268 225,267 226,266 228,265 229,283 230,283 232,281 233,282 235,300 236,299 237,335 239,334 240,334 242,334 243,334 244,334 246,333 247,335 249,334 250,335 252,336 253,337 254,338 256,340 257,340 259,341 260,342 261,343 263,343 264,344 266,344 267,344 268,345 270,296 271,296 273,297 274,297 275,297 277,297 278,297 280,296 281,297 282,297 284,297 285,296 287,296 288,296 289,296 291,296 292,296 294,296 295,297 296,297 298,296 299,296 301,346 302,346 303,346 305,345 306,346 308,346 309,346 310,346 312,346 313,346 315,347 316,347 317,347 319,347 320,347 322,347 323,348 324,348 326,348 327,348 329,348 330,348 331,348 333,348 334,348 336,348 337,348 338,348 340,348 341,348 343,348 344,348 345,348 347,348 348,348 350,348 351,348 353,348 354,348 355,348 357,348 358,289 360,289 361,289 362,288 364,288 365,288 367,288 368,288 369,288 371,238 372,238 374,298 375,298 376,298 378,298 379,298 381,297 382,297 383,297 385,297 386,347 388,347 389,346 390,347 392,346 393,346 395,347 396,300 397,300 399,300 400,300 402,300 403,300 404,300 406,300 407,300 409,248 410,247 411,294 413,294 414,294 416,293 417,293 418,293 420,293 421,293 423,293 424,345 425,345 427,345 428,345 430,345 431,345 432,346 434,345 435,346 437,346 438,346 439,346 441,346 442,346 444,347 445,347 446,347 448,347 449,347 451,347 452,347 454,347 455,347 456,347 458,347 459,348 461,348 462,348 463,348 465,348 466,348 468,348 469,348 470,348 472,348 473,348 475,348 476,348 477,348 479,348 480,348 482,348 483,348 484,348 486,348 487,348 489,348 490,348 491,348 493,348 494,348 496,348 497,348 498,348 500,348 501,348 503,348 504,348 505,348 507,348 508,299 510,299 511,299 512,299 514,299 515,299 517,299 518,299 519,299 521,299 522,299 524,348 525,348 526,348 528,348 529,347 531,347 532,347 533,347 535,347 536,347 538,347 539,347 540,347 542,347 543,347 545,348 546,304 547,304 549,304 550,304 552,304 553,304 555,304 556,304 557,304 559,304 560,304 562,348 563,348 564,347 566,347 567,347 569,347 570,347 571,347 573,347 574,347 576,347 577,347 578,347 580,347 581,348 583,347 584,347 585,291 587,292 588,292 590,291 591,291 592,291 594,291 595,291 597,291 598,292 599,292 601,348 602,348 604,348 605,348 606,348 608,348 609,348 611,348 612,348 613,348 615,348 616,296 618,296 619,296 620,295 622,295 623,295 625,295 626,295 627,295 629,295 630,295 632,346 633,346 634,346 636,346 637,346 639,346 640,347 641,346 643,346 644,346 646,346 647,346 648,347 650,346 651,347 653,347 654,347 656,347 657,347 658,347 660,347 661,347 663,347 664,301 665,301 667,301 668,301 670,301 671,300 672,300 674,300 675,300 677,300 678,300 679,346 681,346 682,346 684,346 685,346 686,303 688,303 689,303 691,303 692,303 693,303 695,303 696,303 698,303 699,303 700,303 702,347 703,347 705,347 706,347 707,347 709,347 710,348 712,348 713,348 714,348 716,348 717,347 719,347 720,347 721,347 723,348 724,348 726,348 727,348 728,348 730,348 731,348 733,348 734,348 735,348 737,348 738,348 740,348 741,348 742,348 744,348 745,348 747,348 748,348 750,348" fill="none" stroke="#d62728" stroke-width="2" opacity="0.8"/>
  <polyline points="50,349 51,349 52,349 54,349 55,349 57,349 58,348 59,348 61,348 62,348 64,348 65,348 66,347 68,347 69,347 71,347 72,347 73,348 75,347 76,347 78,347 79,347 80,345 82,347 83,347 85,347 86,347 87,347 89,347 90,348 92,348 93,348 94,348 96,349 97,349 99,349 100,349 101,349 103,349 104,349 106,349 107,349 108,349 110,348 111,348 113,348 114,348 115,348 117,348 118,348 120,348 121,348 122,348 124,348 125,348 127,348 128,348 129,348 131,348 132,348 134,347 135,347 136,347 138,347 139,347 141,348 142,347 143,347 145,347 146,347 148,346 149,347 151,347 152,347 153,347 155,347 156,347 158,347 159,347 160,346 162,346 163,347 165,347 166,347 167,348 169,348 170,348 172,348 173,348 174,347 176,349 177,349 179,349 180,348 181,348 183,348 184,348 186,347 187,347 188,345 190,345 191,345 193,345 194,345 195,346 197,346 198,346 200,346 201,347 202,347 204,348 205,348 207,348 208,348 209,348 211,348 212,348 214,348 215,348 216,348 218,348 219,348 221,348 222,348 223,348 225,348 226,347 228,347 229,347 230,347 232,348 233,348 235,348 236,348 237,348 239,348 240,347 242,348 243,348 244,347 246,347 247,347 249,347 250,347 252,346 253,346 254,346 256,347 257,347 259,347 260,347 261,347 263,348 264,348 266,348 267,348 268,348 270,348 271,348 273,348 274,348 275,347 277,347 278,347 280,346 281,346 282,346 284,347 285,347 287,347 288,346 289,346 291,346 292,346 294,346 295,347 296,347 298,347 299,346 301,345 302,345 303,346 305,347 306,347 308,346 309,346 310,346 312,345 313,345 315,346 316,346 317,345 319,345 320,344 322,344 323,344 324,344 326,344 327,344 329,344 330,344 331,343 333,344 334,345 336,345 337,345 338,346 340,346 341,346 343,345 344,344 345,344 347,344 348,344 350,344 351,344 353,344 354,344 355,344 357,345 358,346 360,346 361,346 362,347 364,346 365,346 367,346 368,346 369,347 371,347 372,347 374,347 375,347 376,347 378,347 379,349 381,349 382,349 383,349 385,349 386,349 388,349 389,349 390,349 392,349 393,349 395,349 396,349 397,349 399,349 400,349 402,349 403,349 404,349 406,349 407,349 409,349 410,349 411,349 413,349 414,349 416,349 417,349 418,349 420,349 421,349 423,349 424,349 425,349 427,349 428,349 430,348 431,348 432,348 434,348 435,348 437,349 438,349 439,349 441,349 442,349 444,349 445,349 446,349 448,349 449,349 451,349 452,349 454,349 455,349 456,349 458,349 459,349 461,349 462,349 463,349 465,349 466,349 468,349 469,349 470,349 472,349 473,349 475,349 476,349 477,349 479,349 480,349 482,349 483,349 484,349 486,349 487,349 489,349 490,349 491,349 493,349 494,349 496,349 497,349 498,349 500,349 501,348 503,348 504,348 505,348 507,348 508,348 510,348 511,348 512,348 514,348 515,348 517,349 518,349 519,349 521,349 522,349 524,349 525,349 526,349 528,349 529,349 531,349 532,349 533,349 535,349 536,349 538,349 539,349 540,349 542,349 543,349 545,349 546,349 547,348 549,348 550,348 552,348 553,348 555,348 556,348 557,348 559,348 560,348 562,348 563,349 564,349 566,349 567,349 569,349 570,349 571,349 573,349 574,349 576,349 577,348 578,348 580,348 581,348 583,348 584,348 585,348 587,348 588,348 590,348 591,348 592,349 594,349 595,349 597,349 598,349 599,349 601,349 602,349 604,349 605,349 606,349 608,349 609,349 611,349 612,349 613,349 615,349 616,349 618,349 619,349 620,349 622,349 623,349 625,349 626,349 627,349 629,349 630,349 632,349 633,349 634,349 636,349 637,349 639,349 640,349 641,349 643,349 644,349 646,349 647,349 648,347 650,347 651,348 653,348 654,348 656,348 657,348 658,348 660,348 661,348 663,348 664,349 665,349 667,349 668,349 670,348 671,348 672,348 674,348 675,348 677,348 678,348 679,348 681,348 682,348 684,348 685,348 686,348 688,349 689,349 691,349 692,349 693,348 695,349 696,349 698,349 699,349 700,348 702,347 703,347 705,347 706,347 707,347 709,347 710,347 712,347 713,347 714,348 716,349 717,349 719,349 720,349 721,349 723,349 724,349 726,349 727,349 728,349 730,349 731,349 733,349 734,349 735,349 737,349 738,349 740,349 741,349 742,348 744,348 745,348 747,348 748,348 750,348" fill="none" stroke="#9467bd" stroke-width="2" opacity="0.8"/>
  <line x1="600" y1="70" x2="630" y2="70" stroke="#2ca02c" stroke-width="2"/>
  <text x="635" y="74" font-size="12">REINFORCE with baseline</text>
  <line x1="600" y1="90" x2="630" y2="90" stroke="#d62728" stroke-width="2"/>
  <text x="635" y="94" font-size="12">Actor-Critic (value loss)</text>
  <line x1="600" y1="110" x2="630" y2="110" stroke="#9467bd" stroke-width="2"/>
  <text x="635" y="114" font-size="12">Backoff-Tabular Q-learning</text>
</svg>
