<?xml version="1.0" encoding="UTF-8"?>
<svg width="800" height="400" xmlns="http://www.w3.org/2000/svg">
  <rect width="800" height="400" fill="white"/>
  <line x1="50" y1="350" x2="750" y2="350" stroke="black" stroke-width="2"/>
  <line x1="50" y1="50" x2="50" y2="350" stroke="black" stroke-width="2"/>
  <text x="400" y="30" text-anchor="middle" font-size="20" font-weight="bold">Returns per Episode</text>
  <text x="400" y="390" text-anchor="middle" font-size="14">Episode</text>
  <text x="15" y="200" text-anchor="middle" font-size="14" transform="rotate(-90 15 200)">Returns</text>
  <text x="50" y="370" text-anchor="middle" font-size="12">0</text>
  <text x="40" y="350" text-anchor="end" font-size="12">-10.0</text>
  <text x="225" y="370" text-anchor="middle" font-size="12">125</text>
  <text x="40" y="275" text-anchor="end" font-size="12">2.5</text>
  <text x="400" y="370" text-anchor="middle" font-size="12">250</text>
  <text x="40" y="200" text-anchor="end" font-size="12">15.0</text>
  <text x="576" y="370" text-anchor="middle" font-size="12">375</text>
  <text x="40" y="125" text-anchor="end" font-size="12">27.4</text>
  <text x="751" y="370" text-anchor="middle" font-size="12">500</text>
  <text x="40" y="50" text-anchor="end" font-size="12">39.9</text>
  <polyline points="50,235 51,235 52,235 54,235 55,235 57,234 58,238 59,238 61,240 62,240 64,239 65,238 66,237 68,237 69,236 71,237 72,237 73,234 75,235 76,233 78,233 79,233 80,233 82,233 83,233 85,233 86,233 87,233 89,233 90,233 92,233 93,233 94,233 96,232 97,233 99,234 100,234 101,233 103,233 104,233 106,232 107,233 108,233 110,233 111,234 113,233 114,232 115,235 117,236 118,236 120,236 121,236 122,235 124,235 125,235 127,237 128,237 129,237 131,235 132,234 134,234 135,236 136,236 138,236 139,237 141,236 142,235 143,235 145,235 146,234 148,237 149,239 151,237 152,238 153,238 155,237 156,238 158,238 159,238 160,238 162,238 163,234 165,233 166,233 167,233 169,232 170,233 172,232 173,232 174,232 176,231 177,231 179,231 180,231 181,232 183,223 184,216 186,207 187,200 188,192 190,183 191,192 193,201 194,195 195,187 197,197 198,216 200,234 201,252 202,271 204,290 205,309 207,311 208,313 209,330 211,348 212,349 214,330 215,330 216,312 218,312 219,312 221,293 222,293 223,293 225,293 226,274 228,274 229,274 230,274 232,274 233,274 235,260 236,279 237,279 239,279 240,279 242,298 243,279 244,298 246,279 247,282 249,262 250,277 252,277 253,276 254,276 256,261 257,242 259,242 260,242 261,242 263,244 264,244 266,227 267,208 268,208 270,208 271,223 273,242 274,261 275,261 277,281 278,295 280,314 281,313 282,313 284,294 285,294 287,294 288,277 289,276 291,276 292,260 294,241 295,241 296,259 298,277 299,277 301,258 302,239 303,237 305,238 306,238 308,235 309,254 310,235 312,216 313,198 315,217 316,235 317,254 319,273 320,254 322,254 323,254 324,235 326,254 327,273 329,292 330,273 331,255 333,255 334,255 336,255 337,255 338,274 340,293 341,293 343,293 344,293 345,312 347,312 348,312 350,312 351,332 353,332 354,312 355,312 357,312 358,293 360,274 361,255 362,255 364,236 365,217 367,217 368,198 369,217 371,198 372,179 374,179 375,198 376,217 378,217 379,236 381,236 382,217 383,217 385,217 386,217 388,217 389,236 390,236 392,217 393,236 395,217 396,236 397,255 399,274 400,274 402,293 403,293 404,293 406,293 407,312 409,312 410,331 411,312 413,293 414,293 416,293 417,274 418,293 420,274 421,274 423,255 424,236 425,236 427,255 428,274 430,255 431,255 432,255 434,236 435,255 437,236 438,236 439,255 441,255 442,236 444,217 445,217 446,198 448,198 449,198 451,179 452,179 454,179 455,179 456,179 458,179 459,179 461,198 462,198 463,198 465,217 466,236 468,236 469,236 470,236 472,236 473,236 475,255 476,255 477,255 479,274 480,255 482,255 483,274 484,293 486,293 487,293 489,293 490,293 491,274 493,293 494,274 496,293 497,293 498,293 500,293 501,292 503,292 504,311 505,311 507,330 508,330 510,348 511,348 512,348 514,348 515,348 517,349 518,349 519,348 521,348 522,348 524,348 525,349 526,349 528,322 529,322 531,322 532,322 533,322 535,322 536,322 538,323 539,323 540,322 542,323 543,350 545,350 546,350 547,350 549,350 550,350 552,350 553,350 555,350 556,350 557,350 559,350 560,350 562,350 563,350 564,350 566,350 567,350 569,350 570,350 571,350 573,323 574,323 576,323 577,323 578,323 580,323 581,323 583,323 584,295 585,295 587,296 588,323 590,323 591,323 592,323 594,323 595,323 597,323 598,323 599,350 601,350 602,350 604,350 605,350 606,350 608,350 609,350 611,350 612,350 613,350 615,350 616,350 618,350 619,350 620,350 622,350 623,350 625,350 626,350 627,350 629,350 630,350 632,350 633,350 634,350 636,350 637,350 639,350 640,350 641,350 643,350 644,350 646,350 647,350 648,350 650,350 651,350 653,350 654,350 656,350 657,350 658,350 660,350 661,350 663,350 664,350 665,350 667,350 668,350 670,350 671,350 672,350 674,350 675,350 677,350 678,350 679,350 681,350 682,350 684,350 685,350 686,350 688,350 689,323 691,295 692,295 693,295 695,295 696,295 698,296 699,296 700,296 702,296 703,296 705,323 706,350 707,350 709,350 710,350 712,350 713,350 714,350 716,350 717,350 719,350 720,350 721,350 723,350 724,350 726,350 727,350 728,350 730,350 731,350 733,350 734,350 735,350 737,350 738,350 740,350 741,350 742,350 744,350 745,350 747,350 748,350 750,350" fill="none" stroke="#2ca02c" stroke-width="2" opacity="0.8"/>
  <polyline points="50,149 51,136 52,158 54,176 55,191 57,179 58,205 59,231 61,207 62,233 64,231 65,253 66,277 68,278 69,278 71,276 72,301 73,299 75,275 76,299 78,296 79,298 80,298 82,273 83,272 85,273 86,273 87,273 89,274 90,297 92,298 93,298 94,299 96,301 97,304 99,280 100,283 101,285 103,288 104,289 106,292 107,294 108,296 110,296 111,297 113,320 114,348 115,348 117,348 118,348 120,348 121,348 122,348 124,348 125,348 127,347 128,347 129,347 131,347 132,347 134,347 135,348 136,347 138,348 139,348 141,348 142,349 143,349 145,349 146,349 148,348 149,348 151,324 152,323 153,323 155,323 156,323 158,323 159,322 160,322 162,322 163,322 165,321 166,321 167,296 169,269 170,242 172,216 173,216 174,215 176,214 177,213 179,213 180,186 181,208 183,230 184,231 186,255 187,256 188,253 190,227 191,202 193,201 194,199 195,224 197,225 198,225 200,249 201,249 202,273 204,272 205,296 207,322 208,323 209,325 211,324 212,323 214,301 215,301 216,302 218,305 219,284 221,283 222,257 223,256 225,257 226,260 228,259 229,282 230,282 232,283 233,280 235,305 236,308 237,335 239,337 240,338 242,338 243,340 244,342 246,344 247,344 249,347 250,345 252,344 253,344 254,344 256,341 257,341 259,340 260,340 261,339 263,339 264,336 266,338 267,338 268,336 270,309 271,312 273,312 274,314 275,314 277,315 278,316 280,319 281,320 282,320 284,323 285,323 287,323 288,323 289,323 291,323 292,323 294,323 295,323 296,323 298,323 299,323 301,350 302,350 303,350 305,350 306,350 308,350 309,350 310,350 312,350 313,350 315,350 316,350 317,350 319,350 320,350 322,350 323,350 324,350 326,350 327,350 329,350 330,350 331,350 333,350 334,350 336,350 337,350 338,350 340,350 341,350 343,350 344,350 345,350 347,350 348,350 350,350 351,350 353,350 354,350 355,350 357,350 358,323 360,323 361,323 362,323 364,323 365,323 367,323 368,323 369,323 371,296 372,296 374,323 375,323 376,323 378,323 379,323 381,323 382,323 383,323 385,323 386,350 388,350 389,350 390,350 392,350 393,350 395,350 396,323 397,323 399,323 400,323 402,323 403,323 404,323 406,323 407,323 409,296 410,296 411,323 413,323 414,323 416,323 417,323 418,323 420,323 421,323 423,323 424,350 425,350 427,350 428,350 430,350 431,350 432,350 434,350 435,350 437,350 438,350 439,350 441,350 442,350 444,350 445,350 446,350 448,350 449,350 451,350 452,350 454,350 455,350 456,350 458,350 459,350 461,350 462,350 463,350 465,350 466,350 468,350 469,350 470,350 472,350 473,350 475,350 476,350 477,350 479,350 480,350 482,350 483,350 484,350 486,350 487,350 489,350 490,350 491,350 493,350 494,350 496,350 497,350 498,350 500,350 501,350 503,350 504,350 505,350 507,350 508,323 510,323 511,323 512,323 514,323 515,323 517,323 518,323 519,323 521,323 522,323 524,350 525,350 526,350 528,350 529,350 531,350 532,350 533,350 535,350 536,350 538,350 539,350 540,350 542,350 543,350 545,350 546,323 547,323 549,323 550,323 552,323 553,323 555,323 556,323 557,323 559,323 560,323 562,350 563,350 564,350 566,350 567,350 569,350 570,350 571,350 573,350 574,350 576,350 577,350 578,350 580,350 581,350 583,350 584,350 585,323 587,323 588,323 590,323 591,323 592,323 594,323 595,323 597,323 598,323 599,323 601,350 602,350 604,350 605,350 606,350 608,350 609,350 611,350 612,350 613,350 615,350 616,323 618,323 619,323 620,323 622,323 623,323 625,323 626,323 627,323 629,323 630,323 632,350 633,350 634,350 636,350 637,350 639,350 640,350 641,350 643,350 644,350 646,350 647,350 648,350 650,350 651,350 653,350 654,350 656,350 657,350 658,350 660,350 661,350 663,350 664,323 665,323 667,323 668,323 670,323 671,323 672,323 674,323 675,323 677,323 678,323 679,350 681,350 682,350 684,350 685,350 686,323 688,323 689,323 691,323 692,323 693,323 695,323 696,323 698,323 699,323 700,323 702,350 703,350 705,350 706,350 707,350 709,350 710,350 712,350 713,350 714,350 716,350 717,350 719,350 720,350 721,350 723,350 724,350 726,350 727,350 728,350 730,350 731,350 733,350 734,350 735,350 737,350 738,350 740,350 741,350 742,350 744,350 745,350 747,350 748,350 750,350" fill="none" stroke="#d62728" stroke-width="2" opacity="0.8"/>
  <polyline points="50,295 51,301 52,306 54,278 55,257 57,265 58,238 59,237 61,238 62,238 64,262 65,262 66,236 68,236 69,237 71,236 72,209 73,235 75,209 76,184 78,183 79,158 80,132 82,132 83,132 85,157 86,183 87,184 89,184 90,184 92,184 93,185 94,210 96,211 97,236 99,235 100,210 101,185 103,185 104,159 106,185 107,185 108,160 110,134 111,159 113,159 114,133 115,132 117,132 118,131 120,130 121,129 122,156 124,155 125,155 127,129 128,104 129,104 131,129 132,129 134,129 135,129 136,103 138,77 139,77 141,78 142,77 143,77 145,103 146,78 148,77 149,77 151,77 152,77 153,77 155,102 156,102 158,128 159,152 160,126 162,127 163,152 165,152 166,177 167,177 169,203 170,203 172,203 173,203 174,178 176,180 177,180 179,181 180,181 181,156 183,180 184,180 186,154 187,154 188,129 190,154 191,152 193,177 194,151 195,176 197,176 198,176 200,151 201,176 202,176 204,202 205,176 207,177 208,152 209,152 211,152 212,152 214,127 215,127 216,103 218,103 219,77 221,77 222,77 223,101 225,101 226,76 228,102 229,102 230,101 232,126 233,126 235,126 236,126 237,126 239,102 240,102 242,126 243,126 244,126 246,125 247,101 249,101 250,100 252,100 253,100 254,100 256,100 257,76 259,76 260,76 261,101 263,126 264,126 266,126 267,151 268,150 270,151 271,150 273,175 274,149 275,149 277,125 278,100 280,100 281,124 282,124 284,149 285,149 287,149 288,125 289,125 291,125 292,125 294,149 295,149 296,148 298,148 299,123 301,123 302,123 303,123 305,147 306,147 308,147 309,123 310,123 312,100 313,75 315,100 316,100 317,100 319,99 320,75 322,75 323,75 324,75 326,99 327,99 329,123 330,98 331,98 333,98 334,98 336,98 337,98 338,99 340,98 341,75 343,74 344,50 345,74 347,74 348,74 350,74 351,74 353,98 354,98 355,98 357,98 358,98 360,98 361,74 362,75 364,74 365,74 367,74 368,51 369,75 371,100 372,124 374,148 375,173 376,197 378,221 379,245 381,270 382,294 383,319 385,319 386,319 388,319 389,287 390,287 392,256 393,224 395,224 396,224 397,224 399,224 400,224 402,191 403,191 404,223 406,223 407,255 409,286 410,255 411,255 413,256 414,255 416,256 417,288 418,257 420,257 421,224 423,224 424,224 425,254 427,254 428,222 430,190 431,190 432,159 434,190 435,190 437,223 438,223 439,223 441,193 442,161 444,193 445,225 446,224 448,255 449,255 451,255 452,255 454,255 455,254 456,284 458,316 459,284 461,284 462,285 463,285 465,285 466,253 468,221 469,190 470,190 472,191 473,160 475,191 476,192 477,192 479,192 480,191 482,191 483,223 484,255 486,254 487,222 489,253 490,222 491,221 493,190 494,157 496,157 497,158 498,158 500,157 501,125 503,157 504,126 505,158 507,125 508,157 510,189 511,189 512,221 514,221 515,190 517,222 518,190 519,221 521,221 522,253 524,222 525,222 526,223 528,192 529,160 531,191 532,159 533,191 535,191 536,191 538,191 539,222 540,190 542,190 543,221 545,253 546,222 547,222 549,221 550,190 552,191 553,190 555,159 556,190 557,158 559,158 560,126 562,156 563,189 564,157 566,156 567,155 569,155 570,187 571,157 573,187 574,188 576,219 577,188 578,156 580,156 581,188 583,189 584,158 585,127 587,156 588,127 590,127 591,95 592,127 594,126 595,127 597,127 598,127 599,159 601,157 602,158 604,188 605,156 606,155 608,124 609,155 611,186 612,186 613,155 615,154 616,155 618,123 619,122 620,122 622,123 623,155 625,156 626,124 627,124 629,156 630,156 632,156 633,188 634,189 636,189 637,220 639,188 640,156 641,156 643,124 644,123 646,122 647,154 648,121 650,89 651,122 653,122 654,154 656,184 657,184 658,217 660,217 661,217 663,217 664,248 665,248 667,248 668,217 670,186 671,155 672,155 674,154 675,155 677,156 678,156 679,126 681,126 682,125 684,125 685,157 686,189 688,220 689,220 691,220 692,189 693,157 695,188 696,221 698,221 699,220 700,187 702,155 703,124 705,124 706,92 707,122 709,122 710,121 712,121 713,89 714,122 716,154 717,186 719,185 720,185 721,217 723,186 724,218 726,218 727,187 728,218 730,218 731,186 733,154 734,187 735,187 737,186 738,218 740,218 741,218 742,217 744,208 745,196 747,226 748,263 750,254" fill="none" stroke="#9467bd" stroke-width="2" opacity="0.8"/>
  <line x1="600" y1="70" x2="630" y2="70" stroke="#2ca02c" stroke-width="2"/>
  <text x="635" y="74" font-size="12">REINFORCE with baseline</text>
  <line x1="600" y1="90" x2="630" y2="90" stroke="#d62728" stroke-width="2"/>
  <text x="635" y="94" font-size="12">Actor-Critic</text>
  <line x1="600" y1="110" x2="630" y2="110" stroke="#9467bd" stroke-width="2"/>
  <text x="635" y="114" font-size="12">Backoff-Tabular Q-learning</text>
</svg>
