<?xml version="1.0" encoding="UTF-8"?>
<svg width="800" height="400" xmlns="http://www.w3.org/2000/svg">
  <rect width="800" height="400" fill="white"/>
  <line x1="50" y1="350" x2="750" y2="350" stroke="black" stroke-width="2"/>
  <line x1="50" y1="50" x2="50" y2="350" stroke="black" stroke-width="2"/>
  <text x="400" y="30" text-anchor="middle" font-size="20" font-weight="bold">Losses per Episode</text>
  <text x="400" y="390" text-anchor="middle" font-size="14">Episode</text>
  <text x="15" y="200" text-anchor="middle" font-size="14" transform="rotate(-90 15 200)">Losses</text>
  <text x="50" y="370" text-anchor="middle" font-size="12">0</text>
  <text x="40" y="350" text-anchor="end" font-size="12">-9.9</text>
  <text x="225" y="370" text-anchor="middle" font-size="12">50</text>
  <text x="40" y="275" text-anchor="end" font-size="12">5.2</text>
  <text x="401" y="370" text-anchor="middle" font-size="12">100</text>
  <text x="40" y="200" text-anchor="end" font-size="12">20.3</text>
  <text x="577" y="370" text-anchor="middle" font-size="12">150</text>
  <text x="40" y="126" text-anchor="end" font-size="12">35.4</text>
  <text x="753" y="370" text-anchor="middle" font-size="12">200</text>
  <text x="40" y="50" text-anchor="end" font-size="12">50.6</text>
  <polyline points="50,350 53,350 57,350 60,350 64,349 67,349 71,349 74,348 78,348 81,348 85,347 88,347 92,347 95,346 99,345 102,345 106,344 109,343 113,343 116,343 120,342 123,341 127,341 130,340 134,340 137,340 141,339 144,339 148,339 152,338 155,338 159,337 162,337 166,337 169,336 173,336 176,336 180,335 183,335 187,335 190,334 194,334 197,334 201,333 204,333 208,333 211,332 215,332 218,331 222,331 225,331 229,330 232,330 236,330 239,329 243,329 246,329 250,328 254,328 257,328 261,327 264,327 268,327 271,327 275,326 278,326 282,326 285,326 289,326 292,326 296,325 299,325 303,325 306,325 310,324 313,324 317,324 320,324 324,324 327,323 331,323 334,323 338,323 341,322 345,322 348,322 352,322 356,322 359,321 363,321 366,321 370,321 373,321 377,320 380,320 384,313 387,306 391,299 394,293 398,282 401,275 405,269 408,263 412,256 415,250 419,244 422,244 426,245 429,246 433,246 436,250 440,251 443,251 447,251 451,252 454,252 458,252 461,253 465,254 468,254 472,255 475,255 479,256 482,257 486,257 489,257 493,257 496,258 500,257 503,257 507,258 510,257 514,258 517,258 521,258 524,259 528,259 531,260 535,260 538,260 542,261 545,261 549,261 553,262 556,262 560,262 563,263 567,263 570,263 574,264 577,264 581,264 584,265 588,265 591,265 595,266 598,266 602,266 605,267 609,267 612,267 616,268 619,268 623,268 626,269 630,269 633,269 637,270 640,270 644,270 647,271 651,271 655,271 658,272 662,272 665,272 669,273 672,273 676,273 679,273 683,274 686,274 690,274 693,274 697,275 700,275 704,275 707,275 711,276 714,276 718,276 721,277 725,277 728,277 732,277 735,277 739,278 742,278 746,278 750,278" fill="none" stroke="#ff7f0e" stroke-width="2" opacity="0.8"/>
  <polyline points="50,243 53,248 57,230 60,232 64,234 67,236 71,231 74,227 78,238 81,235 85,232 88,228 92,212 95,225 99,200 102,201 106,184 109,175 113,176 116,189 120,170 123,171 127,174 130,190 134,192 137,220 141,198 144,176 148,187 152,155 155,116 159,136 162,136 166,123 169,121 173,102 176,101 180,103 183,108 187,109 190,105 194,140 197,107 201,77 204,57 208,58 211,75 215,50 218,70 222,103 225,101 229,137 232,137 236,145 239,151 243,159 246,158 250,134 254,144 257,131 261,130 264,107 268,95 271,75 275,86 278,100 282,120 285,101 289,115 292,110 296,106 299,90 303,100 306,101 310,109 313,110 317,108 320,103 324,115 327,117 331,128 334,138 338,147 341,153 345,156 348,169 352,182 356,194 359,199 363,204 366,212 370,217 373,223 377,229 380,236 384,242 387,241 391,240 394,240 398,244 401,248 405,251 408,255 412,259 415,262 419,266 422,270 426,273 429,276 433,278 436,280 440,281 443,282 447,283 451,283 454,283 458,283 461,283 465,283 468,283 472,283 475,283 479,283 482,283 486,283 489,283 493,284 496,284 500,284 503,284 507,284 510,285 514,285 517,285 521,285 524,285 528,285 531,285 535,285 538,285 542,285 545,285 549,285 553,285 556,285 560,285 563,285 567,285 570,285 574,285 577,285 581,285 584,285 588,285 591,285 595,285 598,286 602,286 605,286 609,286 612,286 616,286 619,286 623,286 626,286 630,286 633,286 637,286 640,286 644,286 647,286 651,285 655,286 658,285 662,285 665,285 669,285 672,285 676,285 679,285 683,285 686,285 690,285 693,285 697,285 700,285 704,285 707,285 711,285 714,285 718,286 721,286 725,286 728,286 732,286 735,286 739,286 742,286 746,286 750,286" fill="none" stroke="#d62728" stroke-width="2" opacity="0.8"/>
  <polyline points="50,312 53,311 57,311 60,311 64,311 67,310 71,310 74,309 78,308 81,308 85,308 88,307 92,307 95,307 99,306 102,306 106,305 109,306 113,305 116,305 120,305 123,304 127,304 130,304 134,304 137,304 141,304 144,304 148,304 152,303 155,304 159,304 162,304 166,304 169,304 173,304 176,305 180,305 183,305 187,305 190,305 194,305 197,305 201,305 204,305 208,304 211,304 215,304 218,304 222,304 225,303 229,303 232,303 236,303 239,303 243,303 246,303 250,302 254,302 257,302 261,302 264,302 268,302 271,302 275,302 278,302 282,302 285,302 289,302 292,302 296,302 299,302 303,302 306,302 310,302 313,302 317,302 320,302 324,302 327,302 331,302 334,302 338,302 341,302 345,302 348,302 352,302 356,302 359,301 363,302 366,302 370,302 373,302 377,302 380,302 384,302 387,302 391,301 394,301 398,301 401,301 405,301 408,301 412,301 415,301 419,301 422,301 426,301 429,301 433,301 436,301 440,301 443,301 447,301 451,301 454,301 458,301 461,301 465,301 468,301 472,301 475,301 479,301 482,301 486,301 489,300 493,300 496,300 500,300 503,300 507,300 510,300 514,300 517,300 521,299 524,300 528,300 531,300 535,299 538,299 542,299 545,299 549,299 553,299 556,299 560,299 563,299 567,298 570,298 574,298 577,298 581,297 584,297 588,296 591,296 595,295 598,295 602,294 605,293 609,292 612,292 616,291 619,290 623,290 626,289 630,289 633,289 637,289 640,289 644,290 647,290 651,290 655,291 658,291 662,292 665,292 669,292 672,292 676,293 679,293 683,292 686,292 690,292 693,292 697,292 700,292 704,292 707,292 711,292 714,292 718,292 721,293 725,293 728,293 732,293 735,293 739,293 742,293 746,293 750,293" fill="none" stroke="#2ca02c" stroke-width="2" opacity="0.8"/>
  <polyline points="50,322 53,322 57,321 60,321 64,321 67,322 71,322 74,322 78,322 81,321 85,319 88,320 92,320 95,320 99,320 102,319 106,318 109,318 113,318 116,318 120,319 123,320 127,320 130,319 134,320 137,319 141,319 144,319 148,319 152,319 155,319 159,318 162,317 166,317 169,317 173,316 176,317 180,317 183,311 187,311 190,311 194,311 197,311 201,311 204,311 208,311 211,311 215,311 218,311 222,317 225,317 229,317 232,313 236,313 239,308 243,307 246,309 250,309 254,309 257,309 261,310 264,310 268,310 271,314 275,314 278,320 282,320 285,319 289,320 292,320 296,320 299,319 303,319 306,319 310,319 313,319 317,319 320,319 324,320 327,319 331,319 334,319 338,320 341,319 345,320 348,320 352,321 356,320 359,320 363,315 366,315 370,315 373,315 377,314 380,314 384,313 387,313 391,311 394,310 398,309 401,313 405,313 408,313 412,312 415,312 419,312 422,308 426,307 429,307 433,308 436,308 440,307 443,307 447,306 451,307 454,306 458,305 461,309 465,308 468,309 472,308 475,308 479,307 482,308 486,308 489,307 493,307 496,307 500,307 503,307 507,309 510,309 514,309 517,309 521,308 524,308 528,308 531,307 535,308 538,308 542,309 545,308 549,308 553,308 556,308 560,310 563,310 567,311 570,311 574,312 577,312 581,312 584,311 588,311 591,311 595,311 598,309 602,309 605,308 609,309 612,307 616,307 619,306 623,306 626,306 630,306 633,306 637,306 640,305 644,305 647,304 651,304 655,306 658,306 662,306 665,306 669,306 672,306 676,306 679,306 683,306 686,306 690,306 693,304 697,304 700,304 704,304 707,304 711,304 714,304 718,304 721,304 725,304 728,304 732,304 735,304 739,304 742,304 746,304 750,304" fill="none" stroke="#1f77b4" stroke-width="2" opacity="0.8"/>
  <line x1="600" y1="70" x2="630" y2="70" stroke="#ff7f0e" stroke-width="2"/>
  <text x="635" y="74" font-size="12">REINFORCE++</text>
  <line x1="600" y1="90" x2="630" y2="90" stroke="#d62728" stroke-width="2"/>
  <text x="635" y="94" font-size="12">Actor-Critic (value loss)</text>
  <line x1="600" y1="110" x2="630" y2="110" stroke="#2ca02c" stroke-width="2"/>
  <text x="635" y="114" font-size="12">REINFORCE with baseline</text>
  <line x1="600" y1="130" x2="630" y2="130" stroke="#1f77b4" stroke-width="2"/>
  <text x="635" y="134" font-size="12">REINFORCE (no baseline)</text>
</svg>
