<?xml version="1.0" encoding="UTF-8"?>
<svg width="800" height="400" xmlns="http://www.w3.org/2000/svg">
  <rect width="800" height="400" fill="white"/>
  <line x1="50" y1="350" x2="750" y2="350" stroke="black" stroke-width="2"/>
  <line x1="50" y1="50" x2="50" y2="350" stroke="black" stroke-width="2"/>
  <text x="400" y="30" text-anchor="middle" font-size="20" font-weight="bold">Returns per Episode</text>
  <text x="400" y="390" text-anchor="middle" font-size="14">Episode</text>
  <text x="15" y="200" text-anchor="middle" font-size="14" transform="rotate(-90 15 200)">Returns</text>
  <text x="50" y="370" text-anchor="middle" font-size="12">0</text>
  <text x="40" y="350" text-anchor="end" font-size="12">-9.8</text>
  <text x="225" y="370" text-anchor="middle" font-size="12">50</text>
  <text x="40" y="275" text-anchor="end" font-size="12">-4.9</text>
  <text x="401" y="370" text-anchor="middle" font-size="12">100</text>
  <text x="40" y="200" text-anchor="end" font-size="12">0.1</text>
  <text x="577" y="370" text-anchor="middle" font-size="12">150</text>
  <text x="40" y="125" text-anchor="end" font-size="12">5.0</text>
  <text x="753" y="370" text-anchor="middle" font-size="12">200</text>
  <text x="40" y="50" text-anchor="end" font-size="12">10.0</text>
  <polyline points="50,52 53,52 57,52 60,52 64,52 67,52 71,51 74,51 78,51 81,51 85,51 88,51 92,51 95,51 99,51 102,51 106,51 109,51 113,51 116,51 120,51 123,51 127,51 130,51 134,51 137,51 141,51 144,51 148,51 152,51 155,51 159,51 162,51 166,51 169,51 173,51 176,51 180,51 183,51 187,51 190,50 194,50 197,50 201,50 204,50 208,51 211,51 215,51 218,51 222,51 225,51 229,52 232,52 236,52 239,52 243,52 246,52 250,52 254,52 257,52 261,52 264,52 268,52 271,52 275,52 278,52 282,52 285,52 289,52 292,51 296,51 299,51 303,51 306,51 310,51 313,51 317,51 320,51 324,51 327,51 331,52 334,52 338,52 341,52 345,52 348,51 352,51 356,51 359,51 363,51 366,51 370,51 373,51 377,51 380,52 384,78 387,105 391,131 394,157 398,182 401,208 405,234 408,259 412,284 415,310 419,335 422,334 426,332 429,331 433,330 436,331 440,331 443,332 447,332 451,333 454,333 458,334 461,331 465,331 468,331 472,331 475,332 479,333 482,332 486,334 489,334 493,335 496,336 500,339 503,341 507,343 510,345 514,345 517,345 521,346 524,346 528,346 531,346 535,346 538,348 542,348 545,348 549,347 553,348 556,348 560,349 563,349 567,349 570,349 574,349 577,349 581,349 584,349 588,350 591,350 595,350 598,350 602,350 605,350 609,350 612,350 616,350 619,350 623,350 626,350 630,350 633,350 637,350 640,350 644,350 647,350 651,350 655,350 658,350 662,350 665,350 669,350 672,350 676,350 679,350 683,350 686,350 690,350 693,350 697,350 700,350 704,350 707,350 711,350 714,350 718,350 721,350 725,350 728,350 732,350 735,350 739,350 742,350 746,349 750,350" fill="none" stroke="#ff7f0e" stroke-width="2" opacity="0.8"/>
  <polyline points="50,242 53,248 57,233 60,243 64,251 67,257 71,264 74,269 78,275 81,279 85,284 88,290 92,275 95,294 99,272 102,273 106,255 109,237 113,235 116,246 120,224 123,222 127,218 130,232 134,230 137,249 141,227 144,221 148,237 152,216 155,196 159,216 162,215 166,199 169,201 173,182 176,182 180,183 183,183 187,181 190,180 194,201 197,179 201,157 204,151 208,150 211,168 215,146 218,164 222,183 225,183 229,203 232,201 236,202 239,202 243,202 246,201 250,178 254,179 257,160 261,160 264,139 268,121 271,101 275,102 278,103 282,123 285,103 289,103 292,102 296,100 299,80 303,80 306,100 310,100 313,99 317,117 320,98 324,99 327,98 331,99 334,99 338,100 341,100 345,78 348,95 352,113 356,111 359,133 363,156 366,178 370,201 373,226 377,250 380,275 384,301 387,310 391,318 394,325 398,328 401,331 405,335 408,338 412,340 415,342 419,344 422,344 426,344 429,345 433,346 436,346 440,346 443,347 447,347 451,347 454,347 458,347 461,347 465,347 468,347 472,347 475,347 479,347 482,347 486,347 489,347 493,347 496,347 500,347 503,347 507,347 510,347 514,347 517,347 521,348 524,348 528,347 531,348 535,348 538,348 542,348 545,347 549,347 553,348 556,348 560,348 563,347 567,347 570,347 574,347 577,347 581,347 584,347 588,347 591,347 595,347 598,347 602,347 605,347 609,347 612,347 616,347 619,347 623,347 626,347 630,347 633,347 637,347 640,347 644,347 647,347 651,347 655,347 658,347 662,347 665,347 669,347 672,347 676,348 679,347 683,347 686,347 690,347 693,348 697,348 700,347 704,347 707,347 711,347 714,347 718,348 721,348 725,348 728,347 732,347 735,347 739,347 742,347 746,347 750,347" fill="none" stroke="#d62728" stroke-width="2" opacity="0.8"/>
  <polyline points="50,305 53,307 57,308 60,309 64,311 67,313 71,317 74,320 78,323 81,325 85,327 88,329 92,332 95,334 99,336 102,337 106,339 109,340 113,342 116,342 120,344 123,345 127,345 130,345 134,345 137,346 141,346 144,346 148,346 152,346 155,346 159,345 162,344 166,343 169,343 173,343 176,342 180,342 183,341 187,340 190,340 194,340 197,340 201,341 204,342 208,342 211,342 215,343 218,343 222,343 225,344 229,344 232,344 236,345 239,345 243,345 246,345 250,345 254,345 257,346 261,347 264,347 268,347 271,347 275,347 278,347 282,347 285,347 289,348 292,348 296,348 299,347 303,347 306,347 310,347 313,347 317,347 320,347 324,347 327,347 331,346 334,346 338,346 341,345 345,345 348,345 352,344 356,344 359,345 363,345 366,345 370,344 373,345 377,345 380,345 384,345 387,344 391,345 394,345 398,344 401,344 405,344 408,344 412,344 415,343 419,343 422,343 426,343 429,344 433,344 436,342 440,342 443,342 447,342 451,342 454,343 458,343 461,342 465,341 468,341 472,340 475,340 479,340 482,339 486,338 489,337 493,336 496,333 500,332 503,331 507,330 510,329 514,329 517,328 521,328 524,327 528,328 531,328 535,329 538,327 542,327 545,326 549,325 553,324 556,324 560,321 563,320 567,318 570,316 574,315 577,315 581,312 584,310 588,306 591,301 595,296 598,293 602,287 605,281 609,277 612,271 616,266 619,261 623,257 626,255 630,255 633,254 637,252 640,255 644,257 647,259 651,265 655,268 658,271 662,273 665,275 669,277 672,280 676,283 679,285 683,283 686,283 690,282 693,283 697,286 700,286 704,286 707,285 711,287 714,288 718,286 721,290 725,292 728,289 732,288 735,287 739,288 742,290 746,292 750,290" fill="none" stroke="#2ca02c" stroke-width="2" opacity="0.8"/>
  <polyline points="50,304 53,302 57,299 60,298 64,299 67,299 71,300 74,301 78,299 81,298 85,296 88,293 92,293 95,293 99,291 102,289 106,283 109,283 113,281 116,281 120,280 123,279 127,279 130,279 134,281 137,281 141,281 144,283 148,281 152,284 155,286 159,284 162,281 166,281 169,279 173,277 176,279 180,278 183,258 187,260 190,258 194,256 197,257 201,257 204,259 208,257 211,259 215,258 218,259 222,280 225,279 229,279 232,260 236,259 239,240 243,241 246,246 250,245 254,246 257,244 261,246 264,247 268,246 271,267 275,266 278,288 282,287 285,284 289,286 292,284 296,284 299,283 303,283 306,282 310,280 313,280 317,280 320,279 324,281 327,278 331,278 334,281 338,281 341,281 345,282 348,282 352,283 356,282 359,282 363,259 366,259 370,260 373,256 377,254 380,253 384,253 387,257 391,255 394,253 398,251 401,270 405,272 408,272 412,273 415,272 419,273 422,253 426,251 429,251 433,257 436,257 440,256 443,250 447,248 451,246 454,246 458,241 461,259 465,253 468,254 472,247 475,244 479,245 482,247 486,246 489,246 493,244 496,245 500,244 503,245 507,246 510,246 514,245 517,244 521,242 524,243 528,242 531,241 535,241 538,242 542,242 545,240 549,242 553,244 556,243 560,248 563,250 567,253 570,253 574,258 577,258 581,258 584,255 588,251 591,253 595,253 598,249 602,245 605,241 609,246 612,241 616,238 619,238 623,238 626,240 630,237 633,237 637,235 640,234 644,234 647,230 651,230 655,238 658,238 662,238 665,235 669,236 672,236 676,237 679,237 683,237 686,237 690,237 693,229 697,230 700,229 704,229 707,228 711,227 714,227 718,226 721,225 725,226 728,225 732,225 735,224 739,224 742,225 746,225 750,225" fill="none" stroke="#1f77b4" stroke-width="2" opacity="0.8"/>
  <line x1="600" y1="70" x2="630" y2="70" stroke="#ff7f0e" stroke-width="2"/>
  <text x="635" y="74" font-size="12">REINFORCE++</text>
  <line x1="600" y1="90" x2="630" y2="90" stroke="#d62728" stroke-width="2"/>
  <text x="635" y="94" font-size="12">Actor-Critic</text>
  <line x1="600" y1="110" x2="630" y2="110" stroke="#2ca02c" stroke-width="2"/>
  <text x="635" y="114" font-size="12">REINFORCE with baseline</text>
  <line x1="600" y1="130" x2="630" y2="130" stroke="#1f77b4" stroke-width="2"/>
  <text x="635" y="134" font-size="12">REINFORCE (no baseline)</text>
</svg>
