<?xml version="1.0" encoding="UTF-8"?>
<svg width="800" height="400" xmlns="http://www.w3.org/2000/svg">
  <rect width="800" height="400" fill="white"/>
  <line x1="50" y1="350" x2="750" y2="350" stroke="black" stroke-width="2"/>
  <line x1="50" y1="50" x2="50" y2="350" stroke="black" stroke-width="2"/>
  <text x="400" y="30" text-anchor="middle" font-size="20" font-weight="bold">Losses per Episode</text>
  <text x="400" y="390" text-anchor="middle" font-size="14">Episode</text>
  <text x="15" y="200" text-anchor="middle" font-size="14" transform="rotate(-90 15 200)">Losses</text>
  <text x="50" y="370" text-anchor="middle" font-size="12">0</text>
  <text x="40" y="350" text-anchor="end" font-size="12">-0.1</text>
  <text x="225" y="370" text-anchor="middle" font-size="12">50</text>
  <text x="40" y="275" text-anchor="end" font-size="12">2.4</text>
  <text x="401" y="370" text-anchor="middle" font-size="12">100</text>
  <text x="40" y="200" text-anchor="end" font-size="12">4.9</text>
  <text x="577" y="370" text-anchor="middle" font-size="12">150</text>
  <text x="40" y="125" text-anchor="end" font-size="12">7.5</text>
  <text x="753" y="370" text-anchor="middle" font-size="12">200</text>
  <text x="40" y="50" text-anchor="end" font-size="12">10.0</text>
  <polyline points="50,342 53,314 57,281 60,315 64,341 67,314 71,265 74,213 78,203 81,207 85,199 88,156 92,146 95,151 99,101 102,55 106,54 109,50 113,58 116,60 120,61 123,68 127,60 130,63 134,65 137,63 141,63 144,71 148,72 152,75 155,75 159,80 162,83 166,93 169,95 173,91 176,106 180,114 183,115 187,127 190,123 194,129 197,131 201,120 204,120 208,127 211,125 215,114 218,112 222,116 225,108 229,117 232,118 236,110 239,123 243,114 246,116 250,121 254,127 257,129 261,125 264,136 268,135 271,130 275,135 278,132 282,136 285,133 289,130 292,121 296,117 299,122 303,116 306,109 310,113 313,117 317,118 320,126 324,126 327,134 331,147 334,152 338,150 341,154 345,163 348,162 352,163 356,169 359,167 363,170 366,170 370,169 373,170 377,172 380,159 384,156 387,154 391,156 394,148 398,147 401,140 405,145 408,146 412,147 415,147 419,158 422,161 426,167 429,165 433,167 436,163 440,172 443,161 447,157 451,156 454,159 458,155 461,153 465,145 468,141 472,142 475,149 479,150 482,149 486,149 489,148 493,150 496,162 500,161 503,164 507,177 510,186 514,186 517,169 521,178 524,177 528,178 531,174 535,179 538,188 542,187 545,166 549,160 553,164 556,175 560,178 563,188 567,174 570,175 574,176 577,170 581,180 584,191 588,199 591,198 595,205 598,210 602,204 605,220 609,219 612,217 616,220 619,213 623,214 626,203 630,199 633,195 637,188 640,187 644,189 647,188 651,182 655,184 658,185 662,189 665,194 669,194 672,189 676,188 679,190 683,191 686,190 690,185 693,186 697,187 700,187 704,189 707,197 711,199 714,203 718,211 721,217 725,225 728,240 732,240 735,245 739,250 742,253 746,251 750,267" fill="none" stroke="#1f77b4" stroke-width="2" opacity="0.8"/>
  <polyline points="50,148 53,155 57,159 60,168 64,174 67,179 71,200 74,218 78,234 81,245 85,238 88,249 92,256 95,266 99,272 102,280 106,288 109,295 113,300 116,303 120,308 123,312 127,316 130,320 134,324 137,326 141,328 144,329 148,330 152,332 155,334 159,335 162,336 166,338 169,340 173,341 176,342 180,342 183,343 187,344 190,344 194,344 197,345 201,346 204,345 208,345 211,345 215,345 218,346 222,346 225,347 229,347 232,347 236,346 239,346 243,347 246,348 250,348 254,348 257,347 261,347 264,347 268,348 271,347 275,347 278,348 282,348 285,348 289,348 292,350 296,350 299,350 303,350 306,349 310,350 313,350 317,350 320,349 324,349 327,349 331,347 334,347 338,347 341,347 345,347 348,347 352,346 356,347 359,348 363,348 366,348 370,348 373,349 377,348 380,349 384,349 387,349 391,349 394,348 398,348 401,348 405,348 408,348 412,348 415,348 419,348 422,348 426,347 429,348 433,348 436,348 440,348 443,348 447,349 451,349 454,349 458,349 461,349 465,349 468,349 472,349 475,348 479,349 482,349 486,348 489,349 493,348 496,348 500,348 503,348 507,348 510,348 514,348 517,348 521,348 524,348 528,347 531,347 535,347 538,347 542,347 545,348 549,347 553,347 556,347 560,347 563,347 567,347 570,347 574,347 577,347 581,348 584,348 588,348 591,348 595,348 598,349 602,349 605,349 609,350 612,350 616,350 619,350 623,350 626,350 630,350 633,350 637,349 640,349 644,349 647,349 651,349 655,349 658,349 662,348 665,349 669,349 672,349 676,349 679,349 683,349 686,349 690,349 693,349 697,349 700,349 704,349 707,349 711,349 714,349 718,349 721,349 725,349 728,349 732,349 735,349 739,349 742,348 746,348 750,348" fill="none" stroke="#2ca02c" stroke-width="2" opacity="0.8"/>
  <line x1="600" y1="70" x2="630" y2="70" stroke="#1f77b4" stroke-width="2"/>
  <text x="635" y="74" font-size="12">REINFORCE (no baseline)</text>
  <line x1="600" y1="90" x2="630" y2="90" stroke="#2ca02c" stroke-width="2"/>
  <text x="635" y="94" font-size="12">REINFORCE with baseline</text>
</svg>
