<?xml version="1.0" encoding="UTF-8"?>
<svg width="800" height="400" xmlns="http://www.w3.org/2000/svg">
  <rect width="800" height="400" fill="white"/>
  <line x1="50" y1="350" x2="750" y2="350" stroke="black" stroke-width="2"/>
  <line x1="50" y1="50" x2="50" y2="350" stroke="black" stroke-width="2"/>
  <text x="400" y="30" text-anchor="middle" font-size="20" font-weight="bold">Losses per Episode</text>
  <text x="400" y="390" text-anchor="middle" font-size="14">Episode</text>
  <text x="15" y="200" text-anchor="middle" font-size="14" transform="rotate(-90 15 200)">Losses</text>
  <text x="50" y="370" text-anchor="middle" font-size="12">0</text>
  <text x="40" y="350" text-anchor="end" font-size="12">8.0</text>
  <text x="221" y="370" text-anchor="middle" font-size="12">12</text>
  <text x="40" y="275" text-anchor="end" font-size="12">2457.2</text>
  <text x="407" y="370" text-anchor="middle" font-size="12">25</text>
  <text x="40" y="200" text-anchor="end" font-size="12">4906.5</text>
  <text x="578" y="370" text-anchor="middle" font-size="12">37</text>
  <text x="40" y="125" text-anchor="end" font-size="12">7355.7</text>
  <text x="764" y="370" text-anchor="middle" font-size="12">50</text>
  <text x="40" y="50" text-anchor="end" font-size="12">9805.0</text>
  <polyline points="50,347 64,347 78,347 92,347 107,347 121,347 135,347 150,347 164,347 178,347 192,347 207,347 221,347 235,347 250,348 264,348 278,348 292,348 307,348 321,348 335,348 350,348 364,348 378,347 392,347 407,347 421,347 435,347 450,348 464,347 478,348 492,348 507,348 521,348 535,348 550,348 564,348 578,348 592,348 607,348 621,348 635,348 650,348 664,348 678,348 692,348 707,348 721,348 735,348 750,348" fill="none" stroke="#2ca02c" stroke-width="2" opacity="0.8"/>
  <polyline points="50,50 64,53 78,53 92,61 107,60 121,60 135,61 150,62 164,63 178,68 192,74 207,75 221,75 235,76 250,77 264,83 278,97 292,99 307,104 321,104 335,103 350,109 364,113 378,116 392,120 407,123 421,132 435,128 450,134 464,138 478,150 492,161 507,174 521,189 535,202 550,214 564,218 578,220 592,225 607,234 621,246 635,250 650,256 664,252 678,257 692,258 707,259 721,265 735,270 750,276" fill="none" stroke="#d62728" stroke-width="2" opacity="0.8"/>
  <polyline points="50,350 64,350 78,350 92,350 107,350 121,350 135,350 150,350 164,350 178,350 192,350 207,350 221,350 235,350 250,350 264,350 278,350 292,350 307,350 321,350 335,350 350,350 364,350 378,350 392,350 407,350 421,350 435,350 450,350 464,350 478,350 492,350 507,350 521,350 535,350 550,350 564,350 578,350 592,350 607,350 621,350 635,350 650,350 664,350 678,350 692,350 707,350 721,350 735,350 750,350" fill="none" stroke="#9467bd" stroke-width="2" opacity="0.8"/>
  <line x1="600" y1="70" x2="630" y2="70" stroke="#2ca02c" stroke-width="2"/>
  <text x="635" y="74" font-size="12">REINFORCE with baseline</text>
  <line x1="600" y1="90" x2="630" y2="90" stroke="#d62728" stroke-width="2"/>
  <text x="635" y="94" font-size="12">Actor-Critic (value loss)</text>
  <line x1="600" y1="110" x2="630" y2="110" stroke="#9467bd" stroke-width="2"/>
  <text x="635" y="114" font-size="12">Backoff-Tabular Q-learning</text>
</svg>
