<?xml version="1.0" encoding="UTF-8"?>
<svg width="800" height="400" xmlns="http://www.w3.org/2000/svg">
  <rect width="800" height="400" fill="white"/>
  <line x1="50" y1="350" x2="750" y2="350" stroke="black" stroke-width="2"/>
  <line x1="50" y1="50" x2="50" y2="350" stroke="black" stroke-width="2"/>
  <text x="400" y="30" text-anchor="middle" font-size="20" font-weight="bold">Returns per Episode</text>
  <text x="400" y="390" text-anchor="middle" font-size="14">Episode</text>
  <text x="15" y="200" text-anchor="middle" font-size="14" transform="rotate(-90 15 200)">Returns</text>
  <text x="50" y="370" text-anchor="middle" font-size="12">0</text>
  <text x="40" y="350" text-anchor="end" font-size="12">-1.8</text>
  <text x="225" y="370" text-anchor="middle" font-size="12">50</text>
  <text x="40" y="275" text-anchor="end" font-size="12">1.0</text>
  <text x="401" y="370" text-anchor="middle" font-size="12">100</text>
  <text x="40" y="200" text-anchor="end" font-size="12">3.8</text>
  <text x="577" y="370" text-anchor="middle" font-size="12">150</text>
  <text x="40" y="125" text-anchor="end" font-size="12">6.5</text>
  <text x="753" y="370" text-anchor="middle" font-size="12">200</text>
  <text x="40" y="50" text-anchor="end" font-size="12">9.3</text>
  <polyline points="50,350 53,322 57,293 60,324 64,349 67,327 71,284 74,238 78,233 81,236 85,231 88,192 92,185 95,187 99,142 102,100 106,98 109,95 113,95 116,95 120,92 123,96 127,89 130,87 134,81 137,80 141,76 144,75 148,75 152,74 155,70 159,69 162,61 166,60 169,60 173,62 176,60 180,63 183,63 187,62 190,63 194,62 197,61 201,63 204,66 208,66 211,65 215,66 218,62 222,60 225,60 229,60 232,59 236,60 239,58 243,56 246,56 250,56 254,55 257,57 261,58 264,57 268,56 271,57 275,58 278,58 282,58 285,58 289,58 292,60 296,58 299,57 303,57 306,60 310,60 313,59 317,59 320,57 324,57 327,56 331,55 334,55 338,55 341,55 345,52 348,52 352,52 356,52 359,52 363,54 366,54 370,54 373,54 377,55 380,56 384,56 387,56 391,55 394,55 398,56 401,56 405,56 408,56 412,55 415,54 419,54 422,53 426,55 429,55 433,56 436,58 440,56 443,57 447,58 451,58 454,58 458,58 461,58 465,57 468,57 472,57 475,54 479,54 482,54 486,54 489,54 493,54 496,53 500,54 503,54 507,53 510,53 514,53 517,53 521,52 524,52 528,51 531,51 535,51 538,51 542,50 545,51 549,52 553,52 556,52 560,52 563,52 567,54 570,54 574,54 577,54 581,54 584,53 588,53 591,53 595,52 598,52 602,52 605,52 609,52 612,52 616,52 619,52 623,52 626,52 630,52 633,53 637,53 640,54 644,54 647,55 651,56 655,57 658,57 662,57 665,57 669,57 672,61 676,62 679,62 683,62 686,60 690,60 693,59 697,59 700,59 704,58 707,58 711,53 714,52 718,52 721,51 725,51 728,51 732,51 735,51 739,51 742,51 746,51 750,50" fill="none" stroke="#1f77b4" stroke-width="2" opacity="0.8"/>
  <polyline points="50,92 53,93 57,89 60,91 64,89 67,86 71,87 74,89 78,90 81,88 85,76 88,74 92,70 95,70 99,66 102,63 106,64 109,64 113,63 116,59 120,58 123,58 127,59 130,59 134,59 137,59 141,60 144,59 148,57 152,56 155,57 159,57 162,57 166,57 169,56 173,57 176,57 180,57 183,57 187,57 190,57 194,57 197,58 201,57 204,56 208,55 211,55 215,54 218,55 222,54 225,54 229,55 232,55 236,54 239,54 243,55 246,55 250,55 254,56 257,55 261,55 264,55 268,55 271,54 275,54 278,54 282,54 285,55 289,54 292,58 296,58 299,58 303,59 306,58 310,59 313,60 317,60 320,59 324,59 327,58 331,54 334,54 338,53 341,52 345,53 348,52 352,51 356,53 359,53 363,53 366,54 370,55 373,55 377,55 380,55 384,55 387,55 391,55 394,54 398,53 401,53 405,53 408,52 412,52 415,52 419,52 422,52 426,52 429,52 433,52 436,52 440,52 443,52 447,51 451,51 454,51 458,51 461,51 465,51 468,51 472,51 475,51 479,51 482,51 486,51 489,51 493,51 496,51 500,51 503,51 507,51 510,51 514,51 517,51 521,51 524,51 528,51 531,51 535,51 538,51 542,51 545,52 549,53 553,53 556,52 560,53 563,53 567,53 570,53 574,53 577,52 581,52 584,51 588,51 591,51 595,51 598,51 602,51 605,51 609,51 612,52 616,52 619,52 623,52 626,53 630,53 633,53 637,53 640,53 644,53 647,53 651,52 655,52 658,52 662,52 665,51 669,51 672,51 676,51 679,51 683,51 686,51 690,51 693,51 697,51 700,51 704,52 707,52 711,52 714,52 718,52 721,52 725,52 728,52 732,52 735,52 739,51 742,51 746,50 750,50" fill="none" stroke="#2ca02c" stroke-width="2" opacity="0.8"/>
  <line x1="600" y1="70" x2="630" y2="70" stroke="#1f77b4" stroke-width="2"/>
  <text x="635" y="74" font-size="12">REINFORCE (no baseline)</text>
  <line x1="600" y1="90" x2="630" y2="90" stroke="#2ca02c" stroke-width="2"/>
  <text x="635" y="94" font-size="12">REINFORCE with baseline</text>
</svg>
