<?xml version="1.0" encoding="UTF-8"?>
<svg width="800" height="400" xmlns="http://www.w3.org/2000/svg">
  <rect width="800" height="400" fill="white"/>
  <line x1="50" y1="350" x2="750" y2="350" stroke="black" stroke-width="2"/>
  <line x1="50" y1="50" x2="50" y2="350" stroke="black" stroke-width="2"/>
  <text x="400" y="30" text-anchor="middle" font-size="20" font-weight="bold">Returns per Episode</text>
  <text x="400" y="390" text-anchor="middle" font-size="14">Episode</text>
  <text x="15" y="200" text-anchor="middle" font-size="14" transform="rotate(-90 15 200)">Returns</text>
  <text x="50" y="370" text-anchor="middle" font-size="12">0</text>
  <text x="40" y="350" text-anchor="end" font-size="12">-0.2</text>
  <text x="218" y="370" text-anchor="middle" font-size="12">7</text>
  <text x="40" y="275" text-anchor="end" font-size="12">1.9</text>
  <text x="412" y="370" text-anchor="middle" font-size="12">15</text>
  <text x="40" y="200" text-anchor="end" font-size="12">4.0</text>
  <text x="581" y="370" text-anchor="middle" font-size="12">22</text>
  <text x="40" y="125" text-anchor="end" font-size="12">6.2</text>
  <text x="774" y="370" text-anchor="middle" font-size="12">30</text>
  <text x="40" y="50" text-anchor="end" font-size="12">8.3</text>
  <polyline points="50,350 74,301 98,307 122,236 146,247 170,257 194,224 218,225 243,224 267,192 291,193 315,160 339,191 363,159 387,191 412,191 436,158 460,190 484,159 508,159 532,191 556,159 581,158 605,64 629,96 653,104 677,77 701,87 725,50 750,58" fill="none" stroke="#2ca02c" stroke-width="2" opacity="0.8"/>
  <line x1="600" y1="70" x2="630" y2="70" stroke="#2ca02c" stroke-width="2"/>
  <text x="635" y="74" font-size="12">REINFORCE with baseline</text>
</svg>
