<?xml version="1.0" encoding="UTF-8"?>
<svg width="800" height="400" xmlns="http://www.w3.org/2000/svg">
  <rect width="800" height="400" fill="white"/>
  <line x1="50" y1="350" x2="750" y2="350" stroke="black" stroke-width="2"/>
  <line x1="50" y1="50" x2="50" y2="350" stroke="black" stroke-width="2"/>
  <text x="400" y="30" text-anchor="middle" font-size="20" font-weight="bold">Returns per Episode</text>
  <text x="400" y="390" text-anchor="middle" font-size="14">Episode</text>
  <text x="15" y="200" text-anchor="middle" font-size="14" transform="rotate(-90 15 200)">Returns</text>
  <text x="50" y="370" text-anchor="middle" font-size="12">0</text>
  <text x="40" y="350" text-anchor="end" font-size="12">88.1</text>
  <text x="221" y="370" text-anchor="middle" font-size="12">12</text>
  <text x="40" y="276" text-anchor="end" font-size="12">91.0</text>
  <text x="407" y="370" text-anchor="middle" font-size="12">25</text>
  <text x="40" y="200" text-anchor="end" font-size="12">94.0</text>
  <text x="578" y="370" text-anchor="middle" font-size="12">37</text>
  <text x="40" y="125" text-anchor="end" font-size="12">96.9</text>
  <text x="764" y="370" text-anchor="middle" font-size="12">50</text>
  <text x="40" y="50" text-anchor="end" font-size="12">99.8</text>
  <polyline points="50,54 64,55 78,54 92,53 107,54 121,54 135,54 150,54 164,52 178,52 192,52 207,51 221,54 235,58 250,59 264,59 278,58 292,57 307,69 321,68 335,68 350,68 364,70 378,67 392,62 407,63 421,64 435,64 450,64 464,54 478,55 492,58 507,59 521,58 535,59 550,59 564,58 578,55 592,56 607,56 621,55 635,56 650,52 664,52 678,51 692,50 707,51 721,51 735,52 750,52" fill="none" stroke="#2ca02c" stroke-width="2" opacity="0.8"/>
  <polyline points="50,51 64,52 78,52 92,59 107,58 121,57 135,57 150,57 164,57 178,60 192,64 207,63 221,62 235,62 250,60 264,64 278,79 292,79 307,80 321,79 335,75 350,79 364,79 378,79 392,79 407,78 421,83 435,72 450,72 464,70 478,76 492,80 507,329 521,339 535,345 550,350 564,347 578,338 592,335 607,335 621,337 635,331 650,326 664,70 678,62 692,57 707,52 721,53 735,53 750,54" fill="none" stroke="#d62728" stroke-width="2" opacity="0.8"/>
  <polyline points="50,57 64,61 78,60 92,66 107,65 121,67 135,69 150,71 164,73 178,73 192,75 207,75 221,74 235,73 250,68 264,68 278,70 292,70 307,68 321,67 335,66 350,66 364,67 378,65 392,68 407,67 421,68 435,63 450,62 464,62 478,66 492,67 507,67 521,66 535,66 550,66 564,69 578,69 592,69 607,66 621,66 635,63 650,65 664,62 678,63 692,63 707,62 721,59 735,60 750,62" fill="none" stroke="#9467bd" stroke-width="2" opacity="0.8"/>
  <line x1="600" y1="70" x2="630" y2="70" stroke="#2ca02c" stroke-width="2"/>
  <text x="635" y="74" font-size="12">REINFORCE with baseline</text>
  <line x1="600" y1="90" x2="630" y2="90" stroke="#d62728" stroke-width="2"/>
  <text x="635" y="94" font-size="12">Actor-Critic</text>
  <line x1="600" y1="110" x2="630" y2="110" stroke="#9467bd" stroke-width="2"/>
  <text x="635" y="114" font-size="12">Backoff-Tabular Q-learning</text>
</svg>
