<?xml version="1.0" encoding="UTF-8"?>
<svg xmlns="http://www.w3.org/2000/svg" width="1600" height="1200" viewBox="0 0 1600 1200">
<path d="M 0 0 L 770 0 L 770 360 L 0 360 Z" fill="rgb(249,249,249)" stroke="none"/>
<defs><clipPath id="clip-1"><rect x="71.5049" y="61.2598" width="674.495" height="243.812"/></clipPath></defs>
<g clip-path="url(#clip-1)">
<path d="M 102.164 183.183 L 108.357 172.002 L 114.551 160.936 L 120.745 150.096 L 126.939 139.594 L 133.132 129.536 L 139.326 120.025 L 145.52 111.157 L 151.713 103.024 L 157.907 95.7086 L 164.101 89.2845 L 170.295 83.8176 L 176.488 79.3637 L 182.682 75.9682 L 188.876 73.6657 L 195.069 72.4796 L 201.263 72.4221 L 207.457 73.4937 L 213.651 75.6835 L 219.844 78.9692 L 226.038 83.3172 L 232.232 88.6834 L 238.425 95.0129 L 244.619 102.241 L 250.813 110.295 L 257.007 119.091 L 263.2 128.541 L 269.394 138.548 L 275.588 149.01 L 281.781 159.82 L 287.975 170.869 L 294.169 182.043 L 300.362 193.229 L 306.556 204.312 L 312.75 215.18 L 318.944 225.721 L 325.137 235.829 L 331.331 245.4 L 337.525 254.337 L 343.718 262.549 L 349.912 269.952 L 356.106 276.47 L 362.3 282.037 L 368.493 286.596 L 374.687 290.101 L 380.881 292.516 L 387.074 293.816 L 393.268 293.989 L 399.462 293.032 L 405.656 290.955 L 411.849 287.78 L 418.043 283.538 L 424.237 278.273 L 430.43 272.039 L 436.624 264.899 L 442.818 256.925 L 449.012 248.201 L 455.205 238.813 L 461.399 228.858 L 467.593 218.438 L 473.786 207.658 L 479.98 196.628 L 486.174 185.462 L 492.368 174.272 L 498.561 163.173 L 504.755 152.279 L 510.949 141.699 L 517.142 131.542 L 523.336 121.911 L 529.53 112.906 L 535.724 104.616 L 541.917 97.1276 L 548.111 90.5164 L 554.305 84.8499 L 560.498 80.1858 L 566.692 76.5717 L 572.886 74.0444 L 579.079 72.6298 L 585.273 72.3421 L 591.467 73.1844 L 597.661 75.148 L 603.854 78.213 L 610.048 82.3481 L 616.242 87.5112 L 622.435 93.6495 L 628.629 100.701 L 634.823 108.593 L 641.017 117.245 L 647.21 126.569 L 653.404 136.471 L 659.598 146.849 L 665.791 157.597 L 671.985 168.606 L 678.179 179.764 L 684.373 190.956 L 690.566 202.07 L 696.76 212.99 L 702.954 223.607 L 709.147 233.812 L 715.341 243.501" fill="none" stroke="rgb(11,112,182)" stroke-width="3"/>
<defs><symbol id="marker-1"><path d="M -5 0 L 5 0 M 0 -5 L 0 5 M -3.535 -3.535 L 3.535 3.535 M 3.535 -3.535 L -3.535 3.535" fill="none" stroke="rgb(212,94,0)" stroke-width="1.5"/></symbol></defs>
<use href="#marker-1" x="700.074" y="279.699"/>
<use href="#marker-1" x="235.861" y="220.85"/>
<use href="#marker-1" x="140.86" y="261.556"/>
<use href="#marker-1" x="252.647" y="193.619"/>
<use href="#marker-1" x="687.653" y="241.848"/>
<use href="#marker-1" x="136.293" y="174.348"/>
<use href="#marker-1" x="628.546" y="231.758"/>
<use href="#marker-1" x="445.361" y="78.7357"/>
<use href="#marker-1" x="378.66" y="196.971"/>
<use href="#marker-1" x="679.239" y="258.491"/>
<use href="#marker-1" x="449.54" y="112.237"/>
<use href="#marker-1" x="310.683" y="292.881"/>
<use href="#marker-1" x="493.769" y="149.159"/>
<use href="#marker-1" x="278.206" y="263.286"/>
<use href="#marker-1" x="407.883" y="95.1329"/>
<use href="#marker-1" x="657.107" y="145.334"/>
<use href="#marker-1" x="514.958" y="74.7618"/>
<use href="#marker-1" x="683.651" y="124.051"/>
<use href="#marker-1" x="158.797" y="99.3204"/>
<use href="#marker-1" x="248.065" y="105.551"/>
<use href="#marker-1" x="582.21" y="273.513"/>
<use href="#marker-1" x="144.157" y="107.8"/>
<use href="#marker-1" x="652.242" y="228.882"/>
<use href="#marker-1" x="650.669" y="143.67"/>
<use href="#marker-1" x="654.459" y="201.707"/>
<use href="#marker-1" x="650.695" y="148.465"/>
<use href="#marker-1" x="702.381" y="142.291"/>
<use href="#marker-1" x="114.338" y="205.074"/>
<use href="#marker-1" x="284.303" y="291.412"/>
<use href="#marker-1" x="163.493" y="293.368"/>
</g>
<path d="M 102.164 305.071 L 102.164 315.071" fill="none" stroke="rgb(45,45,45)" stroke-width="2"/>
<text x="102.164" y="323.071" font-family="sans-serif" font-size="18" fill="rgb(45,45,45)" text-anchor="middle" dominant-baseline="text-before-edge">0</text>
<path d="M 224.799 305.071 L 224.799 315.071" fill="none" stroke="rgb(45,45,45)" stroke-width="2"/>
<text x="224.799" y="323.071" font-family="sans-serif" font-size="18" fill="rgb(45,45,45)" text-anchor="middle" dominant-baseline="text-before-edge">2</text>
<path d="M 347.435 305.071 L 347.435 315.071" fill="none" stroke="rgb(45,45,45)" stroke-width="2"/>
<text x="347.435" y="323.071" font-family="sans-serif" font-size="18" fill="rgb(45,45,45)" text-anchor="middle" dominant-baseline="text-before-edge">4</text>
<path d="M 470.07 305.071 L 470.07 315.071" fill="none" stroke="rgb(45,45,45)" stroke-width="2"/>
<text x="470.07" y="323.071" font-family="sans-serif" font-size="18" fill="rgb(45,45,45)" text-anchor="middle" dominant-baseline="text-before-edge">6</text>
<path d="M 592.706 305.071 L 592.706 315.071" fill="none" stroke="rgb(45,45,45)" stroke-width="2"/>
<text x="592.706" y="323.071" font-family="sans-serif" font-size="18" fill="rgb(45,45,45)" text-anchor="middle" dominant-baseline="text-before-edge">8</text>
<path d="M 715.341 305.071 L 715.341 315.071" fill="none" stroke="rgb(45,45,45)" stroke-width="2"/>
<text x="715.341" y="323.071" font-family="sans-serif" font-size="18" fill="rgb(45,45,45)" text-anchor="middle" dominant-baseline="text-before-edge">10</text>
<path d="M 61.5049 294.057 L 71.5049 294.057" fill="none" stroke="rgb(45,45,45)" stroke-width="2"/>
<text x="53.5049" y="294.057" font-family="sans-serif" font-size="18" fill="rgb(45,45,45)" text-anchor="end" dominant-baseline="central">-1</text>
<path d="M 61.5049 238.62 L 71.5049 238.62" fill="none" stroke="rgb(45,45,45)" stroke-width="2"/>
<text x="53.5049" y="238.62" font-family="sans-serif" font-size="18" fill="rgb(45,45,45)" text-anchor="end" dominant-baseline="central">-0.5</text>
<path d="M 61.5049 183.183 L 71.5049 183.183" fill="none" stroke="rgb(45,45,45)" stroke-width="2"/>
<text x="53.5049" y="183.183" font-family="sans-serif" font-size="18" fill="rgb(45,45,45)" text-anchor="end" dominant-baseline="central">0</text>
<path d="M 61.5049 127.745 L 71.5049 127.745" fill="none" stroke="rgb(45,45,45)" stroke-width="2"/>
<text x="53.5049" y="127.745" font-family="sans-serif" font-size="18" fill="rgb(45,45,45)" text-anchor="end" dominant-baseline="central">0.5</text>
<path d="M 61.5049 72.308 L 71.5049 72.308" fill="none" stroke="rgb(45,45,45)" stroke-width="2"/>
<text x="53.5049" y="72.308" font-family="sans-serif" font-size="18" fill="rgb(45,45,45)" text-anchor="end" dominant-baseline="central">1</text>
<path d="M 102.164 61.2598 L 102.164 305.071" fill="none" stroke="rgb(45,45,45)" stroke-opacity="0.15" stroke-width="1"/>
<path d="M 224.799 61.2598 L 224.799 305.071" fill="none" stroke="rgb(45,45,45)" stroke-opacity="0.15" stroke-width="1"/>
<path d="M 347.435 61.2598 L 347.435 305.071" fill="none" stroke="rgb(45,45,45)" stroke-opacity="0.15" stroke-width="1"/>
<path d="M 470.07 61.2598 L 470.07 305.071" fill="none" stroke="rgb(45,45,45)" stroke-opacity="0.15" stroke-width="1"/>
<path d="M 592.706 61.2598 L 592.706 305.071" fill="none" stroke="rgb(45,45,45)" stroke-opacity="0.15" stroke-width="1"/>
<path d="M 715.341 61.2598 L 715.341 305.071" fill="none" stroke="rgb(45,45,45)" stroke-opacity="0.15" stroke-width="1"/>
<path d="M 71.5049 294.057 L 746 294.057" fill="none" stroke="rgb(45,45,45)" stroke-opacity="0.15" stroke-width="1"/>
<path d="M 71.5049 238.62 L 746 238.62" fill="none" stroke="rgb(45,45,45)" stroke-opacity="0.15" stroke-width="1"/>
<path d="M 71.5049 183.183 L 746 183.183" fill="none" stroke="rgb(45,45,45)" stroke-opacity="0.15" stroke-width="1"/>
<path d="M 71.5049 127.745 L 746 127.745" fill="none" stroke="rgb(45,45,45)" stroke-opacity="0.15" stroke-width="1"/>
<path d="M 71.5049 72.308 L 746 72.308" fill="none" stroke="rgb(45,45,45)" stroke-opacity="0.15" stroke-width="1"/>
<path d="M 71.5049 61.2598 L 746 61.2598 L 746 305.071 L 71.5049 305.071 Z" fill="none" stroke="rgb(45,45,45)" stroke-width="2"/>
<text x="408.752" y="45.2598" font-family="sans-serif" font-size="28" font-weight="bold" fill="rgb(45,45,45)" text-anchor="middle" dominant-baseline="text-after-edge">Lines &amp; Scatter</text>
<path d="M 676.911 63.2598 L 744 63.2598 L 744 122.46 L 676.911 122.46 Z" fill="rgb(249,249,249)" fill-opacity="0.85" stroke="rgb(45,45,45)" stroke-opacity="0.3" stroke-width="1"/>
<path d="M 728 74.2598 L 738 74.2598" fill="none" stroke="rgb(11,112,182)" stroke-width="3"/>
<text x="724" y="74.2598" font-family="sans-serif" font-size="18" fill="rgb(45,45,45)" text-anchor="end" dominant-baseline="central">sin</text>
<defs><symbol id="marker-2"><path d="M -4 0 L 4 0 M 0 -4 L 0 4 M -2.828 -2.828 L 2.828 2.828 M 2.828 -2.828 L -2.828 2.828" fill="none" stroke="rgb(212,94,0)" stroke-width="1.2"/></symbol></defs>
<use href="#marker-2" x="733" y="99.8598"/>
<text x="724" y="99.8598" font-family="sans-serif" font-size="18" fill="rgb(45,45,45)" text-anchor="end" dominant-baseline="central">noise</text>
<path d="M 830 0 L 1600 0 L 1600 360 L 830 360 Z" fill="rgb(249,249,249)" stroke="none"/>
<defs><clipPath id="clip-2"><rect x="880.956" y="61.0957" width="695.044" height="243.976"/></clipPath></defs>
<g clip-path="url(#clip-2)">
<path d="M 912.549 198.926 L 1045.57 198.926 L 1045.57 293.981 L 912.549 293.981 Z" fill="rgb(229,160,0)" stroke="none"/>
<path d="M 1078.83 72.1855 L 1211.85 72.1855 L 1211.85 293.981 L 1078.83 293.981 Z" fill="rgb(229,160,0)" stroke="none"/>
<path d="M 1245.11 230.611 L 1378.13 230.611 L 1378.13 293.981 L 1245.11 293.981 Z" fill="rgb(229,160,0)" stroke="none"/>
<path d="M 1411.38 135.556 L 1544.41 135.556 L 1544.41 293.981 L 1411.38 293.981 Z" fill="rgb(229,160,0)" stroke="none"/>
</g>
<path d="M 895.921 305.071 L 895.921 315.071" fill="none" stroke="rgb(45,45,45)" stroke-width="2"/>
<text x="895.921" y="323.071" font-family="sans-serif" font-size="18" fill="rgb(45,45,45)" text-anchor="middle" dominant-baseline="text-before-edge">0.5</text>
<path d="M 979.06 305.071 L 979.06 315.071" fill="none" stroke="rgb(45,45,45)" stroke-width="2"/>
<text x="979.06" y="323.071" font-family="sans-serif" font-size="18" fill="rgb(45,45,45)" text-anchor="middle" dominant-baseline="text-before-edge">1</text>
<path d="M 1062.2 305.071 L 1062.2 315.071" fill="none" stroke="rgb(45,45,45)" stroke-width="2"/>
<text x="1062.2" y="323.071" font-family="sans-serif" font-size="18" fill="rgb(45,45,45)" text-anchor="middle" dominant-baseline="text-before-edge">1.5</text>
<path d="M 1145.34 305.071 L 1145.34 315.071" fill="none" stroke="rgb(45,45,45)" stroke-width="2"/>
<text x="1145.34" y="323.071" font-family="sans-serif" font-size="18" fill="rgb(45,45,45)" text-anchor="middle" dominant-baseline="text-before-edge">2</text>
<path d="M 1228.48 305.071 L 1228.48 315.071" fill="none" stroke="rgb(45,45,45)" stroke-width="2"/>
<text x="1228.48" y="323.071" font-family="sans-serif" font-size="18" fill="rgb(45,45,45)" text-anchor="middle" dominant-baseline="text-before-edge">2.5</text>
<path d="M 1311.62 305.071 L 1311.62 315.071" fill="none" stroke="rgb(45,45,45)" stroke-width="2"/>
<text x="1311.62" y="323.071" font-family="sans-serif" font-size="18" fill="rgb(45,45,45)" text-anchor="middle" dominant-baseline="text-before-edge">3</text>
<path d="M 1394.76 305.071 L 1394.76 315.071" fill="none" stroke="rgb(45,45,45)" stroke-width="2"/>
<text x="1394.76" y="323.071" font-family="sans-serif" font-size="18" fill="rgb(45,45,45)" text-anchor="middle" dominant-baseline="text-before-edge">3.5</text>
<path d="M 1477.9 305.071 L 1477.9 315.071" fill="none" stroke="rgb(45,45,45)" stroke-width="2"/>
<text x="1477.9" y="323.071" font-family="sans-serif" font-size="18" fill="rgb(45,45,45)" text-anchor="middle" dominant-baseline="text-before-edge">4</text>
<path d="M 1561.03 305.071 L 1561.03 315.071" fill="none" stroke="rgb(45,45,45)" stroke-width="2"/>
<text x="1561.03" y="323.071" font-family="sans-serif" font-size="18" fill="rgb(45,45,45)" text-anchor="middle" dominant-baseline="text-before-edge">4.5</text>
<path d="M 870.956 293.981 L 880.956 293.981" fill="none" stroke="rgb(45,45,45)" stroke-width="2"/>
<text x="862.956" y="293.981" font-family="sans-serif" font-size="18" fill="rgb(45,45,45)" text-anchor="end" dominant-baseline="central">0</text>
<path d="M 870.956 262.296 L 880.956 262.296" fill="none" stroke="rgb(45,45,45)" stroke-width="2"/>
<text x="862.956" y="262.296" font-family="sans-serif" font-size="18" fill="rgb(45,45,45)" text-anchor="end" dominant-baseline="central">1</text>
<path d="M 870.956 230.611 L 880.956 230.611" fill="none" stroke="rgb(45,45,45)" stroke-width="2"/>
<text x="862.956" y="230.611" font-family="sans-serif" font-size="18" fill="rgb(45,45,45)" text-anchor="end" dominant-baseline="central">2</text>
<path d="M 870.956 198.926 L 880.956 198.926" fill="none" stroke="rgb(45,45,45)" stroke-width="2"/>
<text x="862.956" y="198.926" font-family="sans-serif" font-size="18" fill="rgb(45,45,45)" text-anchor="end" dominant-baseline="central">3</text>
<path d="M 870.956 167.241 L 880.956 167.241" fill="none" stroke="rgb(45,45,45)" stroke-width="2"/>
<text x="862.956" y="167.241" font-family="sans-serif" font-size="18" fill="rgb(45,45,45)" text-anchor="end" dominant-baseline="central">4</text>
<path d="M 870.956 135.556 L 880.956 135.556" fill="none" stroke="rgb(45,45,45)" stroke-width="2"/>
<text x="862.956" y="135.556" font-family="sans-serif" font-size="18" fill="rgb(45,45,45)" text-anchor="end" dominant-baseline="central">5</text>
<path d="M 870.956 103.871 L 880.956 103.871" fill="none" stroke="rgb(45,45,45)" stroke-width="2"/>
<text x="862.956" y="103.871" font-family="sans-serif" font-size="18" fill="rgb(45,45,45)" text-anchor="end" dominant-baseline="central">6</text>
<path d="M 870.956 72.1855 L 880.956 72.1855" fill="none" stroke="rgb(45,45,45)" stroke-width="2"/>
<text x="862.956" y="72.1855" font-family="sans-serif" font-size="18" fill="rgb(45,45,45)" text-anchor="end" dominant-baseline="central">7</text>
<path d="M 895.921 61.0957 L 895.921 305.071" fill="none" stroke="rgb(45,45,45)" stroke-opacity="0.15" stroke-width="1"/>
<path d="M 979.06 61.0957 L 979.06 305.071" fill="none" stroke="rgb(45,45,45)" stroke-opacity="0.15" stroke-width="1"/>
<path d="M 1062.2 61.0957 L 1062.2 305.071" fill="none" stroke="rgb(45,45,45)" stroke-opacity="0.15" stroke-width="1"/>
<path d="M 1145.34 61.0957 L 1145.34 305.071" fill="none" stroke="rgb(45,45,45)" stroke-opacity="0.15" stroke-width="1"/>
<path d="M 1228.48 61.0957 L 1228.48 305.071" fill="none" stroke="rgb(45,45,45)" stroke-opacity="0.15" stroke-width="1"/>
<path d="M 1311.62 61.0957 L 1311.62 305.071" fill="none" stroke="rgb(45,45,45)" stroke-opacity="0.15" stroke-width="1"/>
<path d="M 1394.76 61.0957 L 1394.76 305.071" fill="none" stroke="rgb(45,45,45)" stroke-opacity="0.15" stroke-width="1"/>
<path d="M 1477.9 61.0957 L 1477.9 305.071" fill="none" stroke="rgb(45,45,45)" stroke-opacity="0.15" stroke-width="1"/>
<path d="M 1561.03 61.0957 L 1561.03 305.071" fill="none" stroke="rgb(45,45,45)" stroke-opacity="0.15" stroke-width="1"/>
<path d="M 880.956 293.981 L 1576 293.981" fill="none" stroke="rgb(45,45,45)" stroke-opacity="0.15" stroke-width="1"/>
<path d="M 880.956 262.296 L 1576 262.296" fill="none" stroke="rgb(45,45,45)" stroke-opacity="0.15" stroke-width="1"/>
<path d="M 880.956 230.611 L 1576 230.611" fill="none" stroke="rgb(45,45,45)" stroke-opacity="0.15" stroke-width="1"/>
<path d="M 880.956 198.926 L 1576 198.926" fill="none" stroke="rgb(45,45,45)" stroke-opacity="0.15" stroke-width="1"/>
<path d="M 880.956 167.241 L 1576 167.241" fill="none" stroke="rgb(45,45,45)" stroke-opacity="0.15" stroke-width="1"/>
<path d="M 880.956 135.556 L 1576 135.556" fill="none" stroke="rgb(45,45,45)" stroke-opacity="0.15" stroke-width="1"/>
<path d="M 880.956 103.871 L 1576 103.871" fill="none" stroke="rgb(45,45,45)" stroke-opacity="0.15" stroke-width="1"/>
<path d="M 880.956 72.1855 L 1576 72.1855" fill="none" stroke="rgb(45,45,45)" stroke-opacity="0.15" stroke-width="1"/>
<path d="M 880.956 61.0957 L 1576 61.0957 L 1576 305.071 L 880.956 305.071 Z" fill="none" stroke="rgb(45,45,45)" stroke-width="2"/>
<text x="1228.48" y="45.0957" font-family="sans-serif" font-size="28" font-weight="bold" fill="rgb(45,45,45)" text-anchor="middle" dominant-baseline="text-after-edge">Bar Chart</text>
<path d="M 0 420 L 770 420 L 770 780 L 0 780 Z" fill="rgb(249,249,249)" stroke="none"/>
<defs><clipPath id="clip-3"><rect x="60.8262" y="486.373" width="685.174" height="238.698"/></clipPath></defs>
<g clip-path="url(#clip-3)">
<path d="M 91.9704 557.5 L 123.115 557.5 L 123.115 714.221 L 91.9704 714.221 Z" fill="rgb(0,158,108)" stroke="none"/>
<path d="M 123.115 617.778 L 154.259 617.778 L 154.259 714.221 L 123.115 714.221 Z" fill="rgb(0,158,108)" stroke="none"/>
<path d="M 154.259 611.75 L 185.403 611.75 L 185.403 714.221 L 154.259 714.221 Z" fill="rgb(0,158,108)" stroke="none"/>
<path d="M 185.403 527.362 L 216.547 527.362 L 216.547 714.221 L 185.403 714.221 Z" fill="rgb(0,158,108)" stroke="none"/>
<path d="M 216.547 551.473 L 247.692 551.473 L 247.692 714.221 L 216.547 714.221 Z" fill="rgb(0,158,108)" stroke="none"/>
<path d="M 247.692 557.5 L 278.836 557.5 L 278.836 714.221 L 247.692 714.221 Z" fill="rgb(0,158,108)" stroke="none"/>
<path d="M 278.836 599.694 L 309.98 599.694 L 309.98 714.221 L 278.836 714.221 Z" fill="rgb(0,158,108)" stroke="none"/>
<path d="M 309.98 563.528 L 341.125 563.528 L 341.125 714.221 L 309.98 714.221 Z" fill="rgb(0,158,108)" stroke="none"/>
<path d="M 341.125 569.556 L 372.269 569.556 L 372.269 714.221 L 341.125 714.221 Z" fill="rgb(0,158,108)" stroke="none"/>
<path d="M 372.269 581.611 L 403.413 581.611 L 403.413 714.221 L 372.269 714.221 Z" fill="rgb(0,158,108)" stroke="none"/>
<path d="M 403.413 533.389 L 434.557 533.389 L 434.557 714.221 L 403.413 714.221 Z" fill="rgb(0,158,108)" stroke="none"/>
<path d="M 434.557 593.667 L 465.702 593.667 L 465.702 714.221 L 434.557 714.221 Z" fill="rgb(0,158,108)" stroke="none"/>
<path d="M 465.702 545.445 L 496.846 545.445 L 496.846 714.221 L 465.702 714.221 Z" fill="rgb(0,158,108)" stroke="none"/>
<path d="M 496.846 545.445 L 527.99 545.445 L 527.99 714.221 L 496.846 714.221 Z" fill="rgb(0,158,108)" stroke="none"/>
<path d="M 527.99 563.528 L 559.134 563.528 L 559.134 714.221 L 527.99 714.221 Z" fill="rgb(0,158,108)" stroke="none"/>
<path d="M 559.134 551.473 L 590.279 551.473 L 590.279 714.221 L 559.134 714.221 Z" fill="rgb(0,158,108)" stroke="none"/>
<path d="M 590.279 527.362 L 621.423 527.362 L 621.423 714.221 L 590.279 714.221 Z" fill="rgb(0,158,108)" stroke="none"/>
<path d="M 621.423 593.667 L 652.567 593.667 L 652.567 714.221 L 621.423 714.221 Z" fill="rgb(0,158,108)" stroke="none"/>
<path d="M 652.567 497.223 L 683.711 497.223 L 683.711 714.221 L 652.567 714.221 Z" fill="rgb(0,158,108)" stroke="none"/>
<path d="M 683.711 581.611 L 714.856 581.611 L 714.856 714.221 L 683.711 714.221 Z" fill="rgb(0,158,108)" stroke="none"/>
</g>
<path d="M 90.7134 725.071 L 90.7134 735.071" fill="none" stroke="rgb(45,45,45)" stroke-width="2"/>
<text x="90.7134" y="743.071" font-family="sans-serif" font-size="18" fill="rgb(45,45,45)" text-anchor="middle" dominant-baseline="text-before-edge">0</text>
<path d="M 215.574 725.071 L 215.574 735.071" fill="none" stroke="rgb(45,45,45)" stroke-width="2"/>
<text x="215.574" y="743.071" font-family="sans-serif" font-size="18" fill="rgb(45,45,45)" text-anchor="middle" dominant-baseline="text-before-edge">0.2</text>
<path d="M 340.434 725.071 L 340.434 735.071" fill="none" stroke="rgb(45,45,45)" stroke-width="2"/>
<text x="340.434" y="743.071" font-family="sans-serif" font-size="18" fill="rgb(45,45,45)" text-anchor="middle" dominant-baseline="text-before-edge">0.4</text>
<path d="M 465.295 725.071 L 465.295 735.071" fill="none" stroke="rgb(45,45,45)" stroke-width="2"/>
<text x="465.295" y="743.071" font-family="sans-serif" font-size="18" fill="rgb(45,45,45)" text-anchor="middle" dominant-baseline="text-before-edge">0.6</text>
<path d="M 590.155 725.071 L 590.155 735.071" fill="none" stroke="rgb(45,45,45)" stroke-width="2"/>
<text x="590.155" y="743.071" font-family="sans-serif" font-size="18" fill="rgb(45,45,45)" text-anchor="middle" dominant-baseline="text-before-edge">0.8</text>
<path d="M 715.016 725.071 L 715.016 735.071" fill="none" stroke="rgb(45,45,45)" stroke-width="2"/>
<text x="715.016" y="743.071" font-family="sans-serif" font-size="18" fill="rgb(45,45,45)" text-anchor="middle" dominant-baseline="text-before-edge">1</text>
<path d="M 50.8262 714.221 L 60.8262 714.221" fill="none" stroke="rgb(45,45,45)" stroke-width="2"/>
<text x="42.8262" y="714.221" font-family="sans-serif" font-size="18" fill="rgb(45,45,45)" text-anchor="end" dominant-baseline="central">0</text>
<path d="M 50.8262 684.083 L 60.8262 684.083" fill="none" stroke="rgb(45,45,45)" stroke-width="2"/>
<text x="42.8262" y="684.083" font-family="sans-serif" font-size="18" fill="rgb(45,45,45)" text-anchor="end" dominant-baseline="central">5</text>
<path d="M 50.8262 653.944 L 60.8262 653.944" fill="none" stroke="rgb(45,45,45)" stroke-width="2"/>
<text x="42.8262" y="653.944" font-family="sans-serif" font-size="18" fill="rgb(45,45,45)" text-anchor="end" dominant-baseline="central">10</text>
<path d="M 50.8262 623.805 L 60.8262 623.805" fill="none" stroke="rgb(45,45,45)" stroke-width="2"/>
<text x="42.8262" y="623.805" font-family="sans-serif" font-size="18" fill="rgb(45,45,45)" text-anchor="end" dominant-baseline="central">15</text>
<path d="M 50.8262 593.667 L 60.8262 593.667" fill="none" stroke="rgb(45,45,45)" stroke-width="2"/>
<text x="42.8262" y="593.667" font-family="sans-serif" font-size="18" fill="rgb(45,45,45)" text-anchor="end" dominant-baseline="central">20</text>
<path d="M 50.8262 563.528 L 60.8262 563.528" fill="none" stroke="rgb(45,45,45)" stroke-width="2"/>
<text x="42.8262" y="563.528" font-family="sans-serif" font-size="18" fill="rgb(45,45,45)" text-anchor="end" dominant-baseline="central">25</text>
<path d="M 50.8262 533.389 L 60.8262 533.389" fill="none" stroke="rgb(45,45,45)" stroke-width="2"/>
<text x="42.8262" y="533.389" font-family="sans-serif" font-size="18" fill="rgb(45,45,45)" text-anchor="end" dominant-baseline="central">30</text>
<path d="M 50.8262 503.251 L 60.8262 503.251" fill="none" stroke="rgb(45,45,45)" stroke-width="2"/>
<text x="42.8262" y="503.251" font-family="sans-serif" font-size="18" fill="rgb(45,45,45)" text-anchor="end" dominant-baseline="central">35</text>
<path d="M 90.7134 486.373 L 90.7134 725.071" fill="none" stroke="rgb(45,45,45)" stroke-opacity="0.15" stroke-width="1"/>
<path d="M 215.574 486.373 L 215.574 725.071" fill="none" stroke="rgb(45,45,45)" stroke-opacity="0.15" stroke-width="1"/>
<path d="M 340.434 486.373 L 340.434 725.071" fill="none" stroke="rgb(45,45,45)" stroke-opacity="0.15" stroke-width="1"/>
<path d="M 465.295 486.373 L 465.295 725.071" fill="none" stroke="rgb(45,45,45)" stroke-opacity="0.15" stroke-width="1"/>
<path d="M 590.155 486.373 L 590.155 725.071" fill="none" stroke="rgb(45,45,45)" stroke-opacity="0.15" stroke-width="1"/>
<path d="M 715.016 486.373 L 715.016 725.071" fill="none" stroke="rgb(45,45,45)" stroke-opacity="0.15" stroke-width="1"/>
<path d="M 60.8262 714.221 L 746 714.221" fill="none" stroke="rgb(45,45,45)" stroke-opacity="0.15" stroke-width="1"/>
<path d="M 60.8262 684.083 L 746 684.083" fill="none" stroke="rgb(45,45,45)" stroke-opacity="0.15" stroke-width="1"/>
<path d="M 60.8262 653.944 L 746 653.944" fill="none" stroke="rgb(45,45,45)" stroke-opacity="0.15" stroke-width="1"/>
<path d="M 60.8262 623.805 L 746 623.805" fill="none" stroke="rgb(45,45,45)" stroke-opacity="0.15" stroke-width="1"/>
<path d="M 60.8262 593.667 L 746 593.667" fill="none" stroke="rgb(45,45,45)" stroke-opacity="0.15" stroke-width="1"/>
<path d="M 60.8262 563.528 L 746 563.528" fill="none" stroke="rgb(45,45,45)" stroke-opacity="0.15" stroke-width="1"/>
<path d="M 60.8262 533.389 L 746 533.389" fill="none" stroke="rgb(45,45,45)" stroke-opacity="0.15" stroke-width="1"/>
<path d="M 60.8262 503.251 L 746 503.251" fill="none" stroke="rgb(45,45,45)" stroke-opacity="0.15" stroke-width="1"/>
<path d="M 60.8262 486.373 L 746 486.373 L 746 725.071 L 60.8262 725.071 Z" fill="none" stroke="rgb(45,45,45)" stroke-width="2"/>
<text x="403.413" y="470.373" font-family="sans-serif" font-size="28" font-weight="bold" fill="rgb(45,45,45)" text-anchor="middle" dominant-baseline="text-after-edge">Histogram</text>
<path d="M 830 420 L 1600 420 L 1600 780 L 830 780 Z" fill="rgb(249,249,249)" stroke="none"/>
<defs><clipPath id="clip-4"><rect x="924.362" y="486.305" width="551.928" height="215.262"/></clipPath></defs>
<g clip-path="url(#clip-4)">
<path d="M -6.49819 0 A 6.49819 6.49819 0 1 1 6.49819 0 A 6.49819 6.49819 0 1 1 -6.49819 0 Z" transform="translate(1224.06,566.652)" fill="rgb(27,155,135)" stroke="rgb(229,160,0)" stroke-width="1"/>
<path d="M -5.12872 0 A 5.12872 5.12872 0 1 1 5.12872 0 A 5.12872 5.12872 0 1 1 -5.12872 0 Z" transform="translate(1430.96,637.691)" fill="rgb(224,230,0)" stroke="rgb(229,160,0)" stroke-width="1"/>
<path d="M -7.4673 0 A 7.4673 7.4673 0 1 1 7.4673 0 A 7.4673 7.4673 0 1 1 -7.4673 0 Z" transform="translate(1198.77,498.641)" fill="rgb(32,143,140)" stroke="rgb(229,160,0)" stroke-width="1"/>
<path d="M -6.68674 0 A 6.68674 6.68674 0 1 1 6.68674 0 A 6.68674 6.68674 0 1 1 -6.68674 0 Z" transform="translate(1259.36,554.572)" fill="rgb(33,172,123)" stroke="rgb(229,160,0)" stroke-width="1"/>
<path d="M -5.21864 0 A 5.21864 5.21864 0 1 1 5.21864 0 A 5.21864 5.21864 0 1 1 -5.21864 0 Z" transform="translate(1071.57,633.927)" fill="rgb(61,78,143)" stroke="rgb(229,160,0)" stroke-width="1"/>
<path d="M -6.24696 0 A 6.24696 6.24696 0 1 1 6.24696 0 A 6.24696 6.24696 0 1 1 -6.24696 0 Z" transform="translate(1207.83,581.883)" fill="rgb(30,147,138)" stroke="rgb(229,160,0)" stroke-width="1"/>
<path d="M -5.31904 0 A 5.31904 5.31904 0 1 1 5.31904 0 A 5.31904 5.31904 0 1 1 -5.31904 0 Z" transform="translate(1231.38,629.575)" fill="rgb(28,159,132)" stroke="rgb(229,160,0)" stroke-width="1"/>
<path d="M -5.6951 0 A 5.6951 5.6951 0 1 1 5.6951 0 A 5.6951 5.6951 0 1 1 -5.6951 0 Z" transform="translate(995.498,611.871)" fill="rgb(73,28,119)" stroke="rgb(229,160,0)" stroke-width="1"/>
<path d="M -7.09928 0 A 7.09928 7.09928 0 1 1 7.09928 0 A 7.09928 7.09928 0 1 1 -7.09928 0 Z" transform="translate(1254.02,526.199)" fill="rgb(31,169,125)" stroke="rgb(229,160,0)" stroke-width="1"/>
<path d="M -5.56586 0 A 5.56586 5.56586 0 1 1 5.56586 0 A 5.56586 5.56586 0 1 1 -5.56586 0 Z" transform="translate(1137.24,618.205)" fill="rgb(45,112,144)" stroke="rgb(229,160,0)" stroke-width="1"/>
<path d="M -4.98717 0 A 4.98717 4.98717 0 1 1 4.98717 0 A 4.98717 4.98717 0 1 1 -4.98717 0 Z" transform="translate(1311.58,643.36)" fill="rgb(74,196,89)" stroke="rgb(229,160,0)" stroke-width="1"/>
<path d="M -4.53635 0 A 4.53635 4.53635 0 1 1 4.53635 0 A 4.53635 4.53635 0 1 1 -4.53635 0 Z" transform="translate(1127.66,659.323)" fill="rgb(47,108,144)" stroke="rgb(229,160,0)" stroke-width="1"/>
<path d="M -6.19155 0 A 6.19155 6.19155 0 1 1 6.19155 0 A 6.19155 6.19155 0 1 1 -6.19155 0 Z" transform="translate(1306.8,585.109)" fill="rgb(68,194,94)" stroke="rgb(229,160,0)" stroke-width="1"/>
<path d="M -6.81199 0 A 6.81199 6.81199 0 1 1 6.81199 0 A 6.81199 6.81199 0 1 1 -6.81199 0 Z" transform="translate(1190.15,546.239)" fill="rgb(33,139,140)" stroke="rgb(229,160,0)" stroke-width="1"/>
<path d="M -7.15285 0 A 7.15285 7.15285 0 1 1 7.15285 0 A 7.15285 7.15285 0 1 1 -7.15285 0 Z" transform="translate(1438.6,522.32)" fill="rgb(234,231,0)" stroke="rgb(229,160,0)" stroke-width="1"/>
<path d="M -7.05275 0 A 7.05275 7.05275 0 1 1 7.05275 0 A 7.05275 7.05275 0 1 1 -7.05275 0 Z" transform="translate(1197.87,529.533)" fill="rgb(32,143,140)" stroke="rgb(229,160,0)" stroke-width="1"/>
<path d="M -3.35843 0 A 3.35843 3.35843 0 1 1 3.35843 0 A 3.35843 3.35843 0 1 1 -3.35843 0 Z" transform="translate(1047.48,686.014)" fill="rgb(67,62,138)" stroke="rgb(229,160,0)" stroke-width="1"/>
<path d="M -6.69641 0 A 6.69641 6.69641 0 1 1 6.69641 0 A 6.69641 6.69641 0 1 1 -6.69641 0 Z" transform="translate(1205.11,553.937)" fill="rgb(31,146,138)" stroke="rgb(229,160,0)" stroke-width="1"/>
<path d="M -4.83457 0 A 4.83457 4.83457 0 1 1 4.83457 0 A 4.83457 4.83457 0 1 1 -4.83457 0 Z" transform="translate(1278.37,649.119)" fill="rgb(45,182,113)" stroke="rgb(229,160,0)" stroke-width="1"/>
<path d="M -7.25536 0 A 7.25536 7.25536 0 1 1 7.25536 0 A 7.25536 7.25536 0 1 1 -7.25536 0 Z" transform="translate(1025.21,514.771)" fill="rgb(71,48,132)" stroke="rgb(229,160,0)" stroke-width="1"/>
<path d="M -7.06174 0 A 7.06174 7.06174 0 1 1 7.06174 0 A 7.06174 7.06174 0 1 1 -7.06174 0 Z" transform="translate(1020.49,528.891)" fill="rgb(71,46,130)" stroke="rgb(229,160,0)" stroke-width="1"/>
<path d="M -4.74504 0 A 4.74504 4.74504 0 1 1 4.74504 0 A 4.74504 4.74504 0 1 1 -4.74504 0 Z" transform="translate(1247.3,652.329)" fill="rgb(29,166,128)" stroke="rgb(229,160,0)" stroke-width="1"/>
<path d="M -6.01824 0 A 6.01824 6.01824 0 1 1 6.01824 0 A 6.01824 6.01824 0 1 1 -6.01824 0 Z" transform="translate(1292.73,594.891)" fill="rgb(55,188,104)" stroke="rgb(229,160,0)" stroke-width="1"/>
<path d="M -5.76705 0 A 5.76705 5.76705 0 1 1 5.76705 0 A 5.76705 5.76705 0 1 1 -5.76705 0 Z" transform="translate(1395.14,608.232)" fill="rgb(176,223,0)" stroke="rgb(229,160,0)" stroke-width="1"/>
<path d="M -5.70194 0 A 5.70194 5.70194 0 1 1 5.70194 0 A 5.70194 5.70194 0 1 1 -5.70194 0 Z" transform="translate(1350.13,611.529)" fill="rgb(116,210,43)" stroke="rgb(229,160,0)" stroke-width="1"/>
<path d="M -5.37569 0 A 5.37569 5.37569 0 1 1 5.37569 0 A 5.37569 5.37569 0 1 1 -5.37569 0 Z" transform="translate(1214.18,627.05)" fill="rgb(29,150,137)" stroke="rgb(229,160,0)" stroke-width="1"/>
<path d="M -7.19404 0 A 7.19404 7.19404 0 1 1 7.19404 0 A 7.19404 7.19404 0 1 1 -7.19404 0 Z" transform="translate(1322.84,519.306)" fill="rgb(84,200,79)" stroke="rgb(229,160,0)" stroke-width="1"/>
<path d="M -7.5 0 A 7.5 7.5 0 1 1 7.5 0 A 7.5 7.5 0 1 1 -7.5 0 Z" transform="translate(1191.65,496.089)" fill="rgb(33,140,140)" stroke="rgb(229,160,0)" stroke-width="1"/>
<path d="M -3.80272 0 A 3.80272 3.80272 0 1 1 3.80272 0 A 3.80272 3.80272 0 1 1 -3.80272 0 Z" transform="translate(1303.46,678.498)" fill="rgb(64,192,97)" stroke="rgb(229,160,0)" stroke-width="1"/>
<path d="M -5.68851 0 A 5.68851 5.68851 0 1 1 5.68851 0 A 5.68851 5.68851 0 1 1 -5.68851 0 Z" transform="translate(1158.15,612.201)" fill="rgb(40,123,143)" stroke="rgb(229,160,0)" stroke-width="1"/>
<path d="M -5.68565 0 A 5.68565 5.68565 0 1 1 5.68565 0 A 5.68565 5.68565 0 1 1 -5.68565 0 Z" transform="translate(982.03,612.343)" fill="rgb(73,18,110)" stroke="rgb(229,160,0)" stroke-width="1"/>
<path d="M -7.476 0 A 7.476 7.476 0 1 1 7.476 0 A 7.476 7.476 0 1 1 -7.476 0 Z" transform="translate(1051.01,497.963)" fill="rgb(66,65,139)" stroke="rgb(229,160,0)" stroke-width="1"/>
<path d="M -6.64658 0 A 6.64658 6.64658 0 1 1 6.64658 0 A 6.64658 6.64658 0 1 1 -6.64658 0 Z" transform="translate(1220.28,557.191)" fill="rgb(29,153,135)" stroke="rgb(229,160,0)" stroke-width="1"/>
<path d="M -6.40022 0 A 6.40022 6.40022 0 1 1 6.40022 0 A 6.40022 6.40022 0 1 1 -6.40022 0 Z" transform="translate(1190.9,572.709)" fill="rgb(33,139,140)" stroke="rgb(229,160,0)" stroke-width="1"/>
<path d="M -6.09291 0 A 6.09291 6.09291 0 1 1 6.09291 0 A 6.09291 6.09291 0 1 1 -6.09291 0 Z" transform="translate(966.949,590.734)" fill="rgb(71,5,100)" stroke="rgb(229,160,0)" stroke-width="1"/>
<path d="M -6.10311 0 A 6.10311 6.10311 0 1 1 6.10311 0 A 6.10311 6.10311 0 1 1 -6.10311 0 Z" transform="translate(1256.1,590.159)" fill="rgb(32,170,125)" stroke="rgb(229,160,0)" stroke-width="1"/>
<path d="M -2.5 0 A 2.5 2.5 0 1 1 2.5 0 A 2.5 2.5 0 1 1 -2.5 0 Z" transform="translate(1451.2,691.782)" fill="rgb(251,233,0)" stroke="rgb(229,160,0)" stroke-width="1"/>
<path d="M -5.10211 0 A 5.10211 5.10211 0 1 1 5.10211 0 A 5.10211 5.10211 0 1 1 -5.10211 0 Z" transform="translate(949.45,638.78)" fill="rgb(68,0,88)" stroke="rgb(229,160,0)" stroke-width="1"/>
<path d="M -5.96858 0 A 5.96858 5.96858 0 1 1 5.96858 0 A 5.96858 5.96858 0 1 1 -5.96858 0 Z" transform="translate(1245.04,597.606)" fill="rgb(29,165,128)" stroke="rgb(229,160,0)" stroke-width="1"/>
<path d="M -4.77028 0 A 4.77028 4.77028 0 1 1 4.77028 0 A 4.77028 4.77028 0 1 1 -4.77028 0 Z" transform="translate(1105.64,651.436)" fill="rgb(52,96,144)" stroke="rgb(229,160,0)" stroke-width="1"/>
<path d="M -5.999 0 A 5.999 5.999 0 1 1 5.999 0 A 5.999 5.999 0 1 1 -5.999 0 Z" transform="translate(1444.32,595.947)" fill="rgb(242,232,0)" stroke="rgb(229,160,0)" stroke-width="1"/>
<path d="M -5.87941 0 A 5.87941 5.87941 0 1 1 5.87941 0 A 5.87941 5.87941 0 1 1 -5.87941 0 Z" transform="translate(1055.78,602.386)" fill="rgb(64,68,140)" stroke="rgb(229,160,0)" stroke-width="1"/>
<path d="M -7.27457 0 A 7.27457 7.27457 0 1 1 7.27457 0 A 7.27457 7.27457 0 1 1 -7.27457 0 Z" transform="translate(1183.67,513.337)" fill="rgb(35,135,142)" stroke="rgb(229,160,0)" stroke-width="1"/>
<path d="M -7.34273 0 A 7.34273 7.34273 0 1 1 7.34273 0 A 7.34273 7.34273 0 1 1 -7.34273 0 Z" transform="translate(1291.65,508.206)" fill="rgb(54,187,106)" stroke="rgb(229,160,0)" stroke-width="1"/>
<path d="M -6.34441 0 A 6.34441 6.34441 0 1 1 6.34441 0 A 6.34441 6.34441 0 1 1 -6.34441 0 Z" transform="translate(1099.64,576.092)" fill="rgb(54,93,144)" stroke="rgb(229,160,0)" stroke-width="1"/>
<path d="M -5.0549 0 A 5.0549 5.0549 0 1 1 5.0549 0 A 5.0549 5.0549 0 1 1 -5.0549 0 Z" transform="translate(1207.22,640.686)" fill="rgb(30,147,138)" stroke="rgb(229,160,0)" stroke-width="1"/>
<path d="M -6.12204 0 A 6.12204 6.12204 0 1 1 6.12204 0 A 6.12204 6.12204 0 1 1 -6.12204 0 Z" transform="translate(1315.69,589.089)" fill="rgb(78,198,86)" stroke="rgb(229,160,0)" stroke-width="1"/>
<path d="M -6.64587 0 A 6.64587 6.64587 0 1 1 6.64587 0 A 6.64587 6.64587 0 1 1 -6.64587 0 Z" transform="translate(1054.22,557.237)" fill="rgb(65,67,140)" stroke="rgb(229,160,0)" stroke-width="1"/>
<path d="M -7.17631 0 A 7.17631 7.17631 0 1 1 7.17631 0 A 7.17631 7.17631 0 1 1 -7.17631 0 Z" transform="translate(1161.94,520.606)" fill="rgb(40,124,143)" stroke="rgb(229,160,0)" stroke-width="1"/>
<path d="M -6.9543 0 A 6.9543 6.9543 0 1 1 6.9543 0 A 6.9543 6.9543 0 1 1 -6.9543 0 Z" transform="translate(1403,536.474)" fill="rgb(187,225,0)" stroke="rgb(229,160,0)" stroke-width="1"/>
</g>
<path d="M 941.181 701.566 L 941.181 711.566" fill="none" stroke="rgb(45,45,45)" stroke-width="2"/>
<text x="941.181" y="719.566" font-family="sans-serif" font-size="18" fill="rgb(45,45,45)" text-anchor="middle" dominant-baseline="text-before-edge">0</text>
<path d="M 1043.43 701.566 L 1043.43 711.566" fill="none" stroke="rgb(45,45,45)" stroke-width="2"/>
<text x="1043.43" y="719.566" font-family="sans-serif" font-size="18" fill="rgb(45,45,45)" text-anchor="middle" dominant-baseline="text-before-edge">0.2</text>
<path d="M 1145.68 701.566 L 1145.68 711.566" fill="none" stroke="rgb(45,45,45)" stroke-width="2"/>
<text x="1145.68" y="719.566" font-family="sans-serif" font-size="18" fill="rgb(45,45,45)" text-anchor="middle" dominant-baseline="text-before-edge">0.4</text>
<path d="M 1247.93 701.566 L 1247.93 711.566" fill="none" stroke="rgb(45,45,45)" stroke-width="2"/>
<text x="1247.93" y="719.566" font-family="sans-serif" font-size="18" fill="rgb(45,45,45)" text-anchor="middle" dominant-baseline="text-before-edge">0.6</text>
<path d="M 1350.18 701.566 L 1350.18 711.566" fill="none" stroke="rgb(45,45,45)" stroke-width="2"/>
<text x="1350.18" y="719.566" font-family="sans-serif" font-size="18" fill="rgb(45,45,45)" text-anchor="middle" dominant-baseline="text-before-edge">0.8</text>
<path d="M 1452.43 701.566 L 1452.43 711.566" fill="none" stroke="rgb(45,45,45)" stroke-width="2"/>
<text x="1452.43" y="719.566" font-family="sans-serif" font-size="18" fill="rgb(45,45,45)" text-anchor="middle" dominant-baseline="text-before-edge">1</text>
<path d="M 914.362 695.616 L 924.362 695.616" fill="none" stroke="rgb(45,45,45)" stroke-width="2"/>
<text x="906.362" y="695.616" font-family="sans-serif" font-size="18" fill="rgb(45,45,45)" text-anchor="end" dominant-baseline="central">0</text>
<path d="M 914.362 655.505 L 924.362 655.505" fill="none" stroke="rgb(45,45,45)" stroke-width="2"/>
<text x="906.362" y="655.505" font-family="sans-serif" font-size="18" fill="rgb(45,45,45)" text-anchor="end" dominant-baseline="central">0.2</text>
<path d="M 914.362 615.395 L 924.362 615.395" fill="none" stroke="rgb(45,45,45)" stroke-width="2"/>
<text x="906.362" y="615.395" font-family="sans-serif" font-size="18" fill="rgb(45,45,45)" text-anchor="end" dominant-baseline="central">0.4</text>
<path d="M 914.362 575.284 L 924.362 575.284" fill="none" stroke="rgb(45,45,45)" stroke-width="2"/>
<text x="906.362" y="575.284" font-family="sans-serif" font-size="18" fill="rgb(45,45,45)" text-anchor="end" dominant-baseline="central">0.6</text>
<path d="M 914.362 535.173 L 924.362 535.173" fill="none" stroke="rgb(45,45,45)" stroke-width="2"/>
<text x="906.362" y="535.173" font-family="sans-serif" font-size="18" fill="rgb(45,45,45)" text-anchor="end" dominant-baseline="central">0.8</text>
<path d="M 914.362 495.062 L 924.362 495.062" fill="none" stroke="rgb(45,45,45)" stroke-width="2"/>
<text x="906.362" y="495.062" font-family="sans-serif" font-size="18" fill="rgb(45,45,45)" text-anchor="end" dominant-baseline="central">1</text>
<path d="M 941.181 486.305 L 941.181 701.566" fill="none" stroke="rgb(45,45,45)" stroke-opacity="0.15" stroke-width="1"/>
<path d="M 1043.43 486.305 L 1043.43 701.566" fill="none" stroke="rgb(45,45,45)" stroke-opacity="0.15" stroke-width="1"/>
<path d="M 1145.68 486.305 L 1145.68 701.566" fill="none" stroke="rgb(45,45,45)" stroke-opacity="0.15" stroke-width="1"/>
<path d="M 1247.93 486.305 L 1247.93 701.566" fill="none" stroke="rgb(45,45,45)" stroke-opacity="0.15" stroke-width="1"/>
<path d="M 1350.18 486.305 L 1350.18 701.566" fill="none" stroke="rgb(45,45,45)" stroke-opacity="0.15" stroke-width="1"/>
<path d="M 1452.43 486.305 L 1452.43 701.566" fill="none" stroke="rgb(45,45,45)" stroke-opacity="0.15" stroke-width="1"/>
<path d="M 924.362 695.616 L 1476.29 695.616" fill="none" stroke="rgb(45,45,45)" stroke-opacity="0.15" stroke-width="1"/>
<path d="M 924.362 655.505 L 1476.29 655.505" fill="none" stroke="rgb(45,45,45)" stroke-opacity="0.15" stroke-width="1"/>
<path d="M 924.362 615.395 L 1476.29 615.395" fill="none" stroke="rgb(45,45,45)" stroke-opacity="0.15" stroke-width="1"/>
<path d="M 924.362 575.284 L 1476.29 575.284" fill="none" stroke="rgb(45,45,45)" stroke-opacity="0.15" stroke-width="1"/>
<path d="M 924.362 535.173 L 1476.29 535.173" fill="none" stroke="rgb(45,45,45)" stroke-opacity="0.15" stroke-width="1"/>
<path d="M 924.362 495.062 L 1476.29 495.062" fill="none" stroke="rgb(45,45,45)" stroke-opacity="0.15" stroke-width="1"/>
<path d="M 924.362 486.305 L 1476.29 486.305 L 1476.29 701.566 L 924.362 701.566 Z" fill="none" stroke="rgb(45,45,45)" stroke-width="2"/>
<text x="1200.33" y="470.305" font-family="sans-serif" font-size="28" font-weight="bold" fill="rgb(45,45,45)" text-anchor="middle" dominant-baseline="text-after-edge">color_by + size_by</text>
<text x="1200.33" y="736.495" font-family="sans-serif" font-size="22" fill="rgb(45,45,45)" text-anchor="middle" dominant-baseline="text-before-edge">x</text>
<text x="862.25" y="593.936" font-family="sans-serif" font-size="22" fill="rgb(45,45,45)" text-anchor="middle" dominant-baseline="central" transform="rotate(-90,862.25,593.936)">y</text>
<path d="M 1488.29 486.305 L 1504.29 486.305 L 1504.29 489.155 L 1488.29 489.155 Z" fill="rgb(251,233,0)" stroke="none"/>
<path d="M 1488.29 488.155 L 1504.29 488.155 L 1504.29 491.004 L 1488.29 491.004 Z" fill="rgb(239,231,0)" stroke="none"/>
<path d="M 1488.29 490.004 L 1504.29 490.004 L 1504.29 492.854 L 1488.29 492.854 Z" fill="rgb(229,230,0)" stroke="none"/>
<path d="M 1488.29 491.854 L 1504.29 491.854 L 1504.29 494.704 L 1488.29 494.704 Z" fill="rgb(219,229,0)" stroke="none"/>
<path d="M 1488.29 493.704 L 1504.29 493.704 L 1504.29 496.554 L 1488.29 496.554 Z" fill="rgb(208,228,0)" stroke="none"/>
<path d="M 1488.29 495.554 L 1504.29 495.554 L 1504.29 498.404 L 1488.29 498.404 Z" fill="rgb(198,226,0)" stroke="none"/>
<path d="M 1488.29 497.404 L 1504.29 497.404 L 1504.29 500.254 L 1488.29 500.254 Z" fill="rgb(187,225,0)" stroke="none"/>
<path d="M 1488.29 499.254 L 1504.29 499.254 L 1504.29 502.104 L 1488.29 502.104 Z" fill="rgb(176,223,0)" stroke="none"/>
<path d="M 1488.29 501.104 L 1504.29 501.104 L 1504.29 503.954 L 1488.29 503.954 Z" fill="rgb(166,221,0)" stroke="none"/>
<path d="M 1488.29 502.954 L 1504.29 502.954 L 1504.29 505.804 L 1488.29 505.804 Z" fill="rgb(154,219,0)" stroke="none"/>
<path d="M 1488.29 504.804 L 1504.29 504.804 L 1504.29 507.654 L 1488.29 507.654 Z" fill="rgb(144,216,0)" stroke="none"/>
<path d="M 1488.29 506.654 L 1504.29 506.654 L 1504.29 509.504 L 1488.29 509.504 Z" fill="rgb(134,214,0)" stroke="none"/>
<path d="M 1488.29 508.504 L 1504.29 508.504 L 1504.29 511.353 L 1488.29 511.353 Z" fill="rgb(124,212,27)" stroke="none"/>
<path d="M 1488.29 510.353 L 1504.29 510.353 L 1504.29 513.203 L 1488.29 513.203 Z" fill="rgb(114,209,46)" stroke="none"/>
<path d="M 1488.29 512.203 L 1504.29 512.203 L 1504.29 515.053 L 1488.29 515.053 Z" fill="rgb(105,206,59)" stroke="none"/>
<path d="M 1488.29 514.053 L 1504.29 514.053 L 1504.29 516.903 L 1488.29 516.903 Z" fill="rgb(96,204,69)" stroke="none"/>
<path d="M 1488.29 515.903 L 1504.29 515.903 L 1504.29 518.753 L 1488.29 518.753 Z" fill="rgb(86,201,77)" stroke="none"/>
<path d="M 1488.29 517.753 L 1504.29 517.753 L 1504.29 520.603 L 1488.29 520.603 Z" fill="rgb(78,198,86)" stroke="none"/>
<path d="M 1488.29 519.603 L 1504.29 519.603 L 1504.29 522.453 L 1488.29 522.453 Z" fill="rgb(70,194,92)" stroke="none"/>
<path d="M 1488.29 521.453 L 1504.29 521.453 L 1504.29 524.303 L 1488.29 524.303 Z" fill="rgb(62,191,98)" stroke="none"/>
<path d="M 1488.29 523.303 L 1504.29 523.303 L 1504.29 526.153 L 1488.29 526.153 Z" fill="rgb(55,188,104)" stroke="none"/>
<path d="M 1488.29 525.153 L 1504.29 525.153 L 1504.29 528.003 L 1488.29 528.003 Z" fill="rgb(49,184,110)" stroke="none"/>
<path d="M 1488.29 527.003 L 1504.29 527.003 L 1504.29 529.853 L 1488.29 529.853 Z" fill="rgb(42,180,115)" stroke="none"/>
<path d="M 1488.29 528.853 L 1504.29 528.853 L 1504.29 531.702 L 1488.29 531.702 Z" fill="rgb(37,175,119)" stroke="none"/>
<path d="M 1488.29 530.702 L 1504.29 530.702 L 1504.29 533.552 L 1488.29 533.552 Z" fill="rgb(33,172,123)" stroke="none"/>
<path d="M 1488.29 532.552 L 1504.29 532.552 L 1504.29 535.402 L 1488.29 535.402 Z" fill="rgb(30,168,126)" stroke="none"/>
<path d="M 1488.29 534.402 L 1504.29 534.402 L 1504.29 537.252 L 1488.29 537.252 Z" fill="rgb(28,164,129)" stroke="none"/>
<path d="M 1488.29 536.252 L 1504.29 536.252 L 1504.29 539.102 L 1488.29 539.102 Z" fill="rgb(28,161,132)" stroke="none"/>
<path d="M 1488.29 538.102 L 1504.29 538.102 L 1504.29 540.952 L 1488.29 540.952 Z" fill="rgb(27,157,133)" stroke="none"/>
<path d="M 1488.29 539.952 L 1504.29 539.952 L 1504.29 542.802 L 1488.29 542.802 Z" fill="rgb(29,153,135)" stroke="none"/>
<path d="M 1488.29 541.802 L 1504.29 541.802 L 1504.29 544.652 L 1488.29 544.652 Z" fill="rgb(29,149,137)" stroke="none"/>
<path d="M 1488.29 543.652 L 1504.29 543.652 L 1504.29 546.502 L 1488.29 546.502 Z" fill="rgb(31,146,138)" stroke="none"/>
<path d="M 1488.29 545.502 L 1504.29 545.502 L 1504.29 548.352 L 1488.29 548.352 Z" fill="rgb(32,142,140)" stroke="none"/>
<path d="M 1488.29 547.352 L 1504.29 547.352 L 1504.29 550.201 L 1488.29 550.201 Z" fill="rgb(34,138,140)" stroke="none"/>
<path d="M 1488.29 549.201 L 1504.29 549.201 L 1504.29 552.051 L 1488.29 552.051 Z" fill="rgb(36,133,142)" stroke="none"/>
<path d="M 1488.29 551.051 L 1504.29 551.051 L 1504.29 553.901 L 1488.29 553.901 Z" fill="rgb(38,129,142)" stroke="none"/>
<path d="M 1488.29 552.901 L 1504.29 552.901 L 1504.29 555.751 L 1488.29 555.751 Z" fill="rgb(39,126,142)" stroke="none"/>
<path d="M 1488.29 554.751 L 1504.29 554.751 L 1504.29 557.601 L 1488.29 557.601 Z" fill="rgb(41,122,143)" stroke="none"/>
<path d="M 1488.29 556.601 L 1504.29 556.601 L 1504.29 559.451 L 1488.29 559.451 Z" fill="rgb(42,118,143)" stroke="none"/>
<path d="M 1488.29 558.451 L 1504.29 558.451 L 1504.29 561.301 L 1488.29 561.301 Z" fill="rgb(45,114,144)" stroke="none"/>
<path d="M 1488.29 560.301 L 1504.29 560.301 L 1504.29 563.151 L 1488.29 563.151 Z" fill="rgb(46,111,144)" stroke="none"/>
<path d="M 1488.29 562.151 L 1504.29 562.151 L 1504.29 565.001 L 1488.29 565.001 Z" fill="rgb(48,107,144)" stroke="none"/>
<path d="M 1488.29 564.001 L 1504.29 564.001 L 1504.29 566.851 L 1488.29 566.851 Z" fill="rgb(50,103,144)" stroke="none"/>
<path d="M 1488.29 565.851 L 1504.29 565.851 L 1504.29 568.701 L 1488.29 568.701 Z" fill="rgb(52,97,144)" stroke="none"/>
<path d="M 1488.29 567.701 L 1504.29 567.701 L 1504.29 570.55 L 1488.29 570.55 Z" fill="rgb(54,93,144)" stroke="none"/>
<path d="M 1488.29 569.55 L 1504.29 569.55 L 1504.29 572.4 L 1488.29 572.4 Z" fill="rgb(56,89,144)" stroke="none"/>
<path d="M 1488.29 571.4 L 1504.29 571.4 L 1504.29 574.25 L 1488.29 574.25 Z" fill="rgb(58,84,143)" stroke="none"/>
<path d="M 1488.29 573.25 L 1504.29 573.25 L 1504.29 576.1 L 1488.29 576.1 Z" fill="rgb(60,80,143)" stroke="none"/>
<path d="M 1488.29 575.1 L 1504.29 575.1 L 1504.29 577.95 L 1488.29 577.95 Z" fill="rgb(62,76,142)" stroke="none"/>
<path d="M 1488.29 576.95 L 1504.29 576.95 L 1504.29 579.8 L 1488.29 579.8 Z" fill="rgb(63,70,141)" stroke="none"/>
<path d="M 1488.29 578.8 L 1504.29 578.8 L 1504.29 581.65 L 1488.29 581.65 Z" fill="rgb(65,66,140)" stroke="none"/>
<path d="M 1488.29 580.65 L 1504.29 580.65 L 1504.29 583.5 L 1488.29 583.5 Z" fill="rgb(67,61,138)" stroke="none"/>
<path d="M 1488.29 582.5 L 1504.29 582.5 L 1504.29 585.35 L 1488.29 585.35 Z" fill="rgb(69,56,136)" stroke="none"/>
<path d="M 1488.29 584.35 L 1504.29 584.35 L 1504.29 587.2 L 1488.29 587.2 Z" fill="rgb(70,52,133)" stroke="none"/>
<path d="M 1488.29 586.2 L 1504.29 586.2 L 1504.29 589.049 L 1488.29 589.049 Z" fill="rgb(71,46,130)" stroke="none"/>
<path d="M 1488.29 588.049 L 1504.29 588.049 L 1504.29 590.899 L 1488.29 590.899 Z" fill="rgb(72,41,127)" stroke="none"/>
<path d="M 1488.29 589.899 L 1504.29 589.899 L 1504.29 592.749 L 1488.29 592.749 Z" fill="rgb(73,36,124)" stroke="none"/>
<path d="M 1488.29 591.749 L 1504.29 591.749 L 1504.29 594.599 L 1488.29 594.599 Z" fill="rgb(73,30,120)" stroke="none"/>
<path d="M 1488.29 593.599 L 1504.29 593.599 L 1504.29 596.449 L 1488.29 596.449 Z" fill="rgb(73,24,115)" stroke="none"/>
<path d="M 1488.29 595.449 L 1504.29 595.449 L 1504.29 598.299 L 1488.29 598.299 Z" fill="rgb(73,18,110)" stroke="none"/>
<path d="M 1488.29 597.299 L 1504.29 597.299 L 1504.29 600.149 L 1488.29 600.149 Z" fill="rgb(71,12,105)" stroke="none"/>
<path d="M 1488.29 599.149 L 1504.29 599.149 L 1504.29 601.999 L 1488.29 601.999 Z" fill="rgb(71,5,100)" stroke="none"/>
<path d="M 1488.29 600.999 L 1504.29 600.999 L 1504.29 603.849 L 1488.29 603.849 Z" fill="rgb(70,0,94)" stroke="none"/>
<path d="M 1488.29 602.849 L 1504.29 602.849 L 1504.29 605.699 L 1488.29 605.699 Z" fill="rgb(68,0,88)" stroke="none"/>
<path d="M 1488.29 486.305 L 1504.29 486.305 L 1504.29 604.699 L 1488.29 604.699 Z" fill="none" stroke="rgb(45,45,45)" stroke-width="2"/>
<text x="1510.29" y="594.586" font-family="sans-serif" font-size="18" fill="rgb(45,45,45)" text-anchor="start" dominant-baseline="central">10</text>
<text x="1510.29" y="582.523" font-family="sans-serif" font-size="18" fill="rgb(45,45,45)" text-anchor="start" dominant-baseline="central">20</text>
<text x="1510.29" y="570.459" font-family="sans-serif" font-size="18" fill="rgb(45,45,45)" text-anchor="start" dominant-baseline="central">30</text>
<text x="1510.29" y="558.396" font-family="sans-serif" font-size="18" fill="rgb(45,45,45)" text-anchor="start" dominant-baseline="central">40</text>
<text x="1510.29" y="546.332" font-family="sans-serif" font-size="18" fill="rgb(45,45,45)" text-anchor="start" dominant-baseline="central">50</text>
<text x="1510.29" y="534.269" font-family="sans-serif" font-size="18" fill="rgb(45,45,45)" text-anchor="start" dominant-baseline="central">60</text>
<text x="1510.29" y="522.205" font-family="sans-serif" font-size="18" fill="rgb(45,45,45)" text-anchor="start" dominant-baseline="central">70</text>
<text x="1510.29" y="510.142" font-family="sans-serif" font-size="18" fill="rgb(45,45,45)" text-anchor="start" dominant-baseline="central">80</text>
<text x="1510.29" y="498.079" font-family="sans-serif" font-size="18" fill="rgb(45,45,45)" text-anchor="start" dominant-baseline="central">90</text>
<defs><symbol id="marker-3"><path d="M -12 0 A 12 12 0 1 1 12 0 A 12 12 0 1 1 -12 0 Z" fill="rgb(45,45,45)" fill-opacity="0.2" stroke="rgb(45,45,45)" stroke-width="1"/></symbol></defs>
<use href="#marker-3" x="1500.29" y="631.462"/>
<text x="1518.29" y="631.462" font-family="sans-serif" font-size="18" fill="rgb(45,45,45)" text-anchor="start" dominant-baseline="central">39.8</text>
<defs><symbol id="marker-4"><path d="M -9.5397 0 A 9.5397 9.5397 0 1 1 9.5397 0 A 9.5397 9.5397 0 1 1 -9.5397 0 Z" fill="rgb(45,45,45)" fill-opacity="0.2" stroke="rgb(45,45,45)" stroke-width="1"/></symbol></defs>
<use href="#marker-4" x="1500.29" y="663.462"/>
<text x="1518.29" y="663.462" font-family="sans-serif" font-size="18" fill="rgb(45,45,45)" text-anchor="start" dominant-baseline="central">20.28</text>
<defs><symbol id="marker-5"><path d="M -3.6 0 A 3.6 3.6 0 1 1 3.6 0 A 3.6 3.6 0 1 1 -3.6 0 Z" fill="rgb(45,45,45)" fill-opacity="0.2" stroke="rgb(45,45,45)" stroke-width="1"/></symbol></defs>
<use href="#marker-5" x="1500.29" y="695.462"/>
<text x="1518.29" y="695.462" font-family="sans-serif" font-size="18" fill="rgb(45,45,45)" text-anchor="start" dominant-baseline="central">0.7648</text>
<path d="M 0 840 L 770 840 L 770 1200 L 0 1200 Z" fill="rgb(249,249,249)" stroke="none"/>
<defs><clipPath id="clip-5"><rect x="78.1582" y="906.865" width="667.842" height="238.206"/></clipPath></defs>
<g clip-path="url(#clip-5)">
<path d="M 108.515 1134.24 L 120.905 1082.26 L 133.295 1058.18 L 145.686 1042.33 L 158.076 1030.5 L 170.467 1021.05 L 182.857 1013.19 L 195.247 1006.46 L 207.638 1000.57 L 220.028 995.334 L 232.419 990.625 L 244.809 986.345 L 257.199 982.423 L 269.59 978.802 L 281.98 975.441 L 294.37 972.304 L 306.761 969.363 L 319.151 966.595 L 331.542 963.981 L 343.932 961.505 L 356.322 959.153 L 368.713 956.913 L 381.103 954.775 L 393.494 952.729 L 405.884 950.769 L 418.274 948.888 L 430.665 947.079 L 443.055 945.336 L 455.445 943.656 L 467.836 942.035 L 480.226 940.467 L 492.617 938.949 L 505.007 937.48 L 517.397 936.054 L 529.788 934.671 L 542.178 933.327 L 554.569 932.021 L 566.959 930.75 L 579.349 929.512 L 591.74 928.306 L 604.13 927.13 L 616.52 925.983 L 628.911 924.863 L 641.301 923.769 L 653.692 922.701 L 666.082 921.655 L 678.472 920.633 L 690.863 919.632 L 703.253 918.653 L 715.644 917.693" fill="none" stroke="rgb(204,119,170)" stroke-width="3"/>
</g>
<path d="M 102.382 1145.07 L 102.382 1155.07" fill="none" stroke="rgb(45,45,45)" stroke-width="2"/>
<text x="102.382" y="1163.07" font-family="sans-serif" font-size="18" fill="rgb(45,45,45)" text-anchor="middle" dominant-baseline="text-before-edge">0</text>
<path d="M 225.034 1145.07 L 225.034 1155.07" fill="none" stroke="rgb(45,45,45)" stroke-width="2"/>
<text x="225.034" y="1163.07" font-family="sans-serif" font-size="18" fill="rgb(45,45,45)" text-anchor="middle" dominant-baseline="text-before-edge">20</text>
<path d="M 347.687 1145.07 L 347.687 1155.07" fill="none" stroke="rgb(45,45,45)" stroke-width="2"/>
<text x="347.687" y="1163.07" font-family="sans-serif" font-size="18" fill="rgb(45,45,45)" text-anchor="middle" dominant-baseline="text-before-edge">40</text>
<path d="M 470.339 1145.07 L 470.339 1155.07" fill="none" stroke="rgb(45,45,45)" stroke-width="2"/>
<text x="470.339" y="1163.07" font-family="sans-serif" font-size="18" fill="rgb(45,45,45)" text-anchor="middle" dominant-baseline="text-before-edge">60</text>
<path d="M 592.991 1145.07 L 592.991 1155.07" fill="none" stroke="rgb(45,45,45)" stroke-width="2"/>
<text x="592.991" y="1163.07" font-family="sans-serif" font-size="18" fill="rgb(45,45,45)" text-anchor="middle" dominant-baseline="text-before-edge">80</text>
<path d="M 715.644 1145.07 L 715.644 1155.07" fill="none" stroke="rgb(45,45,45)" stroke-width="2"/>
<text x="715.644" y="1163.07" font-family="sans-serif" font-size="18" fill="rgb(45,45,45)" text-anchor="middle" dominant-baseline="text-before-edge">100</text>
<path d="M 68.1582 1134.24 L 78.1582 1134.24" fill="none" stroke="rgb(45,45,45)" stroke-width="2"/>
<text x="60.1582" y="1134.24" font-family="sans-serif" font-size="18" fill="rgb(45,45,45)" text-anchor="end" dominant-baseline="central">1</text>
<path d="M 68.1582 1080.11 L 78.1582 1080.11" fill="none" stroke="rgb(45,45,45)" stroke-width="2"/>
<text x="60.1582" y="1080.11" font-family="sans-serif" font-size="18" fill="rgb(45,45,45)" text-anchor="end" dominant-baseline="central">10</text>
<path d="M 68.1582 1025.97 L 78.1582 1025.97" fill="none" stroke="rgb(45,45,45)" stroke-width="2"/>
<text x="60.1582" y="1025.97" font-family="sans-serif" font-size="18" fill="rgb(45,45,45)" text-anchor="end" dominant-baseline="central">10^2</text>
<path d="M 68.1582 971.831 L 78.1582 971.831" fill="none" stroke="rgb(45,45,45)" stroke-width="2"/>
<text x="60.1582" y="971.831" font-family="sans-serif" font-size="18" fill="rgb(45,45,45)" text-anchor="end" dominant-baseline="central">10^3</text>
<path d="M 68.1582 917.693 L 78.1582 917.693" fill="none" stroke="rgb(45,45,45)" stroke-width="2"/>
<text x="60.1582" y="917.693" font-family="sans-serif" font-size="18" fill="rgb(45,45,45)" text-anchor="end" dominant-baseline="central">10^4</text>
<path d="M 102.382 906.865 L 102.382 1145.07" fill="none" stroke="rgb(45,45,45)" stroke-opacity="0.15" stroke-width="1"/>
<path d="M 225.034 906.865 L 225.034 1145.07" fill="none" stroke="rgb(45,45,45)" stroke-opacity="0.15" stroke-width="1"/>
<path d="M 347.687 906.865 L 347.687 1145.07" fill="none" stroke="rgb(45,45,45)" stroke-opacity="0.15" stroke-width="1"/>
<path d="M 470.339 906.865 L 470.339 1145.07" fill="none" stroke="rgb(45,45,45)" stroke-opacity="0.15" stroke-width="1"/>
<path d="M 592.991 906.865 L 592.991 1145.07" fill="none" stroke="rgb(45,45,45)" stroke-opacity="0.15" stroke-width="1"/>
<path d="M 715.644 906.865 L 715.644 1145.07" fill="none" stroke="rgb(45,45,45)" stroke-opacity="0.15" stroke-width="1"/>
<path d="M 78.1582 1134.24 L 746 1134.24" fill="none" stroke="rgb(45,45,45)" stroke-opacity="0.15" stroke-width="1"/>
<path d="M 78.1582 1080.11 L 746 1080.11" fill="none" stroke="rgb(45,45,45)" stroke-opacity="0.15" stroke-width="1"/>
<path d="M 78.1582 1025.97 L 746 1025.97" fill="none" stroke="rgb(45,45,45)" stroke-opacity="0.15" stroke-width="1"/>
<path d="M 78.1582 971.831 L 746 971.831" fill="none" stroke="rgb(45,45,45)" stroke-opacity="0.15" stroke-width="1"/>
<path d="M 78.1582 917.693 L 746 917.693" fill="none" stroke="rgb(45,45,45)" stroke-opacity="0.15" stroke-width="1"/>
<path d="M 78.1582 906.865 L 746 906.865 L 746 1145.07 L 78.1582 1145.07 Z" fill="none" stroke="rgb(45,45,45)" stroke-width="2"/>
<text x="412.079" y="890.865" font-family="sans-serif" font-size="28" font-weight="bold" fill="rgb(45,45,45)" text-anchor="middle" dominant-baseline="text-after-edge">Quadratic (log y)</text>
<path d="M 830 840 L 1600 840 L 1600 1200 L 830 1200 Z" fill="rgb(249,249,249)" stroke="none"/>
<defs><clipPath id="clip-6"><rect x="880.956" y="906.018" width="695.044" height="239.054"/></clipPath></defs>
<g clip-path="url(#clip-6)">
<path d="M 912.549 916.884 L 975.735 916.884 L 975.735 944.049 L 912.549 944.049 Z" fill="rgb(32,144,140)" stroke="none"/>
<path d="M 975.735 916.884 L 1038.92 916.884 L 1038.92 944.049 L 975.735 944.049 Z" fill="rgb(32,144,140)" stroke="none"/>
<path d="M 1038.92 916.884 L 1102.11 916.884 L 1102.11 944.049 L 1038.92 944.049 Z" fill="rgb(32,144,140)" stroke="none"/>
<path d="M 1102.11 916.884 L 1165.29 916.884 L 1165.29 944.049 L 1102.11 944.049 Z" fill="rgb(32,144,140)" stroke="none"/>
<path d="M 1165.29 916.884 L 1228.48 916.884 L 1228.48 944.049 L 1165.29 944.049 Z" fill="rgb(32,144,140)" stroke="none"/>
<path d="M 1228.48 916.884 L 1291.66 916.884 L 1291.66 944.049 L 1228.48 944.049 Z" fill="rgb(32,144,140)" stroke="none"/>
<path d="M 1291.66 916.884 L 1354.85 916.884 L 1354.85 944.049 L 1291.66 944.049 Z" fill="rgb(32,144,140)" stroke="none"/>
<path d="M 1354.85 916.884 L 1418.04 916.884 L 1418.04 944.049 L 1354.85 944.049 Z" fill="rgb(32,144,140)" stroke="none"/>
<path d="M 1418.04 916.884 L 1481.22 916.884 L 1481.22 944.049 L 1418.04 944.049 Z" fill="rgb(32,144,140)" stroke="none"/>
<path d="M 1481.22 916.884 L 1544.41 916.884 L 1544.41 944.049 L 1481.22 944.049 Z" fill="rgb(32,144,140)" stroke="none"/>
<path d="M 912.549 944.049 L 975.735 944.049 L 975.735 971.214 L 912.549 971.214 Z" fill="rgb(82,199,83)" stroke="none"/>
<path d="M 975.735 944.049 L 1038.92 944.049 L 1038.92 971.214 L 975.735 971.214 Z" fill="rgb(72,195,91)" stroke="none"/>
<path d="M 1038.92 944.049 L 1102.11 944.049 L 1102.11 971.214 L 1038.92 971.214 Z" fill="rgb(49,184,110)" stroke="none"/>
<path d="M 1102.11 944.049 L 1165.29 944.049 L 1165.29 971.214 L 1102.11 971.214 Z" fill="rgb(28,164,129)" stroke="none"/>
<path d="M 1165.29 944.049 L 1228.48 944.049 L 1228.48 971.214 L 1165.29 971.214 Z" fill="rgb(32,142,140)" stroke="none"/>
<path d="M 1228.48 944.049 L 1291.66 944.049 L 1291.66 971.214 L 1228.48 971.214 Z" fill="rgb(42,118,143)" stroke="none"/>
<path d="M 1291.66 944.049 L 1354.85 944.049 L 1354.85 971.214 L 1291.66 971.214 Z" fill="rgb(51,100,145)" stroke="none"/>
<path d="M 1354.85 944.049 L 1418.04 944.049 L 1418.04 971.214 L 1354.85 971.214 Z" fill="rgb(57,86,143)" stroke="none"/>
<path d="M 1418.04 944.049 L 1481.22 944.049 L 1481.22 971.214 L 1418.04 971.214 Z" fill="rgb(59,82,144)" stroke="none"/>
<path d="M 1481.22 944.049 L 1544.41 944.049 L 1544.41 971.214 L 1481.22 971.214 Z" fill="rgb(56,89,144)" stroke="none"/>
<path d="M 912.549 971.214 L 975.735 971.214 L 975.735 998.379 L 912.549 998.379 Z" fill="rgb(200,227,0)" stroke="none"/>
<path d="M 975.735 971.214 L 1038.92 971.214 L 1038.92 998.379 L 975.735 998.379 Z" fill="rgb(176,223,0)" stroke="none"/>
<path d="M 1038.92 971.214 L 1102.11 971.214 L 1102.11 998.379 L 1038.92 998.379 Z" fill="rgb(114,209,46)" stroke="none"/>
<path d="M 1102.11 971.214 L 1165.29 971.214 L 1165.29 998.379 L 1102.11 998.379 Z" fill="rgb(43,181,114)" stroke="none"/>
<path d="M 1165.29 971.214 L 1228.48 971.214 L 1228.48 998.379 L 1165.29 998.379 Z" fill="rgb(33,141,140)" stroke="none"/>
<path d="M 1228.48 971.214 L 1291.66 971.214 L 1291.66 998.379 L 1228.48 998.379 Z" fill="rgb(51,100,145)" stroke="none"/>
<path d="M 1291.66 971.214 L 1354.85 971.214 L 1354.85 998.379 L 1291.66 998.379 Z" fill="rgb(67,61,138)" stroke="none"/>
<path d="M 1354.85 971.214 L 1418.04 971.214 L 1418.04 998.379 L 1354.85 998.379 Z" fill="rgb(73,31,121)" stroke="none"/>
<path d="M 1418.04 971.214 L 1481.22 971.214 L 1481.22 998.379 L 1418.04 998.379 Z" fill="rgb(73,23,114)" stroke="none"/>
<path d="M 1481.22 971.214 L 1544.41 971.214 L 1544.41 998.379 L 1481.22 998.379 Z" fill="rgb(72,38,126)" stroke="none"/>
<path d="M 912.549 998.379 L 975.735 998.379 L 975.735 1025.54 L 912.549 1025.54 Z" fill="rgb(251,233,0)" stroke="none"/>
<path d="M 975.735 998.379 L 1038.92 998.379 L 1038.92 1025.54 L 975.735 1025.54 Z" fill="rgb(224,230,0)" stroke="none"/>
<path d="M 1038.92 998.379 L 1102.11 998.379 L 1102.11 1025.54 L 1038.92 1025.54 Z" fill="rgb(149,217,0)" stroke="none"/>
<path d="M 1102.11 998.379 L 1165.29 998.379 L 1165.29 1025.54 L 1102.11 1025.54 Z" fill="rgb(54,187,106)" stroke="none"/>
<path d="M 1165.29 998.379 L 1228.48 998.379 L 1228.48 1025.54 L 1165.29 1025.54 Z" fill="rgb(33,140,140)" stroke="none"/>
<path d="M 1228.48 998.379 L 1291.66 998.379 L 1291.66 1025.54 L 1228.48 1025.54 Z" fill="rgb(55,91,144)" stroke="none"/>
<path d="M 1291.66 998.379 L 1354.85 998.379 L 1354.85 1025.54 L 1291.66 1025.54 Z" fill="rgb(72,42,128)" stroke="none"/>
<path d="M 1354.85 998.379 L 1418.04 998.379 L 1418.04 1025.54 L 1354.85 1025.54 Z" fill="rgb(70,3,98)" stroke="none"/>
<path d="M 1418.04 998.379 L 1481.22 998.379 L 1481.22 1025.54 L 1418.04 1025.54 Z" fill="rgb(68,0,88)" stroke="none"/>
<path d="M 1481.22 998.379 L 1544.41 998.379 L 1544.41 1025.54 L 1481.22 1025.54 Z" fill="rgb(71,12,105)" stroke="none"/>
<path d="M 912.549 1025.54 L 975.735 1025.54 L 975.735 1052.71 L 912.549 1052.71 Z" fill="rgb(221,229,0)" stroke="none"/>
<path d="M 975.735 1025.54 L 1038.92 1025.54 L 1038.92 1052.71 L 975.735 1052.71 Z" fill="rgb(198,226,0)" stroke="none"/>
<path d="M 1038.92 1025.54 L 1102.11 1025.54 L 1102.11 1052.71 L 1038.92 1052.71 Z" fill="rgb(129,213,13)" stroke="none"/>
<path d="M 1102.11 1025.54 L 1165.29 1025.54 L 1165.29 1052.71 L 1102.11 1052.71 Z" fill="rgb(48,183,110)" stroke="none"/>
<path d="M 1165.29 1025.54 L 1228.48 1025.54 L 1228.48 1052.71 L 1165.29 1052.71 Z" fill="rgb(33,140,140)" stroke="none"/>
<path d="M 1228.48 1025.54 L 1291.66 1025.54 L 1291.66 1052.71 L 1228.48 1052.71 Z" fill="rgb(53,95,144)" stroke="none"/>
<path d="M 1291.66 1025.54 L 1354.85 1025.54 L 1354.85 1052.71 L 1291.66 1052.71 Z" fill="rgb(70,53,134)" stroke="none"/>
<path d="M 1354.85 1025.54 L 1418.04 1025.54 L 1418.04 1052.71 L 1354.85 1052.71 Z" fill="rgb(73,20,112)" stroke="none"/>
<path d="M 1418.04 1025.54 L 1481.22 1025.54 L 1481.22 1052.71 L 1418.04 1052.71 Z" fill="rgb(71,10,104)" stroke="none"/>
<path d="M 1481.22 1025.54 L 1544.41 1025.54 L 1544.41 1052.71 L 1481.22 1052.71 Z" fill="rgb(73,28,119)" stroke="none"/>
<path d="M 912.549 1052.71 L 975.735 1052.71 L 975.735 1079.87 L 912.549 1079.87 Z" fill="rgb(116,210,43)" stroke="none"/>
<path d="M 975.735 1052.71 L 1038.92 1052.71 L 1038.92 1079.87 L 975.735 1079.87 Z" fill="rgb(102,206,61)" stroke="none"/>
<path d="M 1038.92 1052.71 L 1102.11 1052.71 L 1102.11 1079.87 L 1038.92 1079.87 Z" fill="rgb(66,193,95)" stroke="none"/>
<path d="M 1102.11 1052.71 L 1165.29 1052.71 L 1165.29 1079.87 L 1102.11 1079.87 Z" fill="rgb(32,170,125)" stroke="none"/>
<path d="M 1165.29 1052.71 L 1228.48 1052.71 L 1228.48 1079.87 L 1165.29 1079.87 Z" fill="rgb(32,142,140)" stroke="none"/>
<path d="M 1228.48 1052.71 L 1291.66 1052.71 L 1291.66 1079.87 L 1228.48 1079.87 Z" fill="rgb(45,112,144)" stroke="none"/>
<path d="M 1291.66 1052.71 L 1354.85 1052.71 L 1354.85 1079.87 L 1291.66 1079.87 Z" fill="rgb(57,87,143)" stroke="none"/>
<path d="M 1354.85 1052.71 L 1418.04 1052.71 L 1418.04 1079.87 L 1354.85 1079.87 Z" fill="rgb(64,69,141)" stroke="none"/>
<path d="M 1418.04 1052.71 L 1481.22 1052.71 L 1481.22 1079.87 L 1418.04 1079.87 Z" fill="rgb(66,63,139)" stroke="none"/>
<path d="M 1481.22 1052.71 L 1544.41 1052.71 L 1544.41 1079.87 L 1481.22 1079.87 Z" fill="rgb(63,74,142)" stroke="none"/>
<path d="M 912.549 1079.87 L 975.735 1079.87 L 975.735 1107.04 L 912.549 1107.04 Z" fill="rgb(28,161,132)" stroke="none"/>
<path d="M 975.735 1079.87 L 1038.92 1079.87 L 1038.92 1107.04 L 975.735 1107.04 Z" fill="rgb(28,160,132)" stroke="none"/>
<path d="M 1038.92 1079.87 L 1102.11 1079.87 L 1102.11 1107.04 L 1038.92 1107.04 Z" fill="rgb(27,155,135)" stroke="none"/>
<path d="M 1102.11 1079.87 L 1165.29 1079.87 L 1165.29 1107.04 L 1102.11 1107.04 Z" fill="rgb(29,149,137)" stroke="none"/>
<path d="M 1165.29 1079.87 L 1228.48 1079.87 L 1228.48 1107.04 L 1165.29 1107.04 Z" fill="rgb(32,143,140)" stroke="none"/>
<path d="M 1228.48 1079.87 L 1291.66 1079.87 L 1291.66 1107.04 L 1228.48 1107.04 Z" fill="rgb(35,135,142)" stroke="none"/>
<path d="M 1291.66 1079.87 L 1354.85 1079.87 L 1354.85 1107.04 L 1291.66 1107.04 Z" fill="rgb(37,130,142)" stroke="none"/>
<path d="M 1354.85 1079.87 L 1418.04 1079.87 L 1418.04 1107.04 L 1354.85 1107.04 Z" fill="rgb(39,127,142)" stroke="none"/>
<path d="M 1418.04 1079.87 L 1481.22 1079.87 L 1481.22 1107.04 L 1418.04 1107.04 Z" fill="rgb(39,126,142)" stroke="none"/>
<path d="M 1481.22 1079.87 L 1544.41 1079.87 L 1544.41 1107.04 L 1481.22 1107.04 Z" fill="rgb(38,128,142)" stroke="none"/>
<path d="M 912.549 1107.04 L 975.735 1107.04 L 975.735 1134.21 L 912.549 1134.21 Z" fill="rgb(51,100,145)" stroke="none"/>
<path d="M 975.735 1107.04 L 1038.92 1107.04 L 1038.92 1134.21 L 975.735 1134.21 Z" fill="rgb(49,104,144)" stroke="none"/>
<path d="M 1038.92 1107.04 L 1102.11 1107.04 L 1102.11 1134.21 L 1038.92 1134.21 Z" fill="rgb(45,113,144)" stroke="none"/>
<path d="M 1102.11 1107.04 L 1165.29 1107.04 L 1165.29 1134.21 L 1102.11 1134.21 Z" fill="rgb(38,128,142)" stroke="none"/>
<path d="M 1165.29 1107.04 L 1228.48 1107.04 L 1228.48 1134.21 L 1165.29 1134.21 Z" fill="rgb(32,145,138)" stroke="none"/>
<path d="M 1228.48 1107.04 L 1291.66 1107.04 L 1291.66 1134.21 L 1228.48 1134.21 Z" fill="rgb(28,161,131)" stroke="none"/>
<path d="M 1291.66 1107.04 L 1354.85 1107.04 L 1354.85 1134.21 L 1291.66 1134.21 Z" fill="rgb(36,174,120)" stroke="none"/>
<path d="M 1354.85 1107.04 L 1418.04 1107.04 L 1418.04 1134.21 L 1354.85 1134.21 Z" fill="rgb(48,183,110)" stroke="none"/>
<path d="M 1418.04 1107.04 L 1481.22 1107.04 L 1481.22 1134.21 L 1418.04 1134.21 Z" fill="rgb(52,186,107)" stroke="none"/>
<path d="M 1481.22 1107.04 L 1544.41 1107.04 L 1544.41 1134.21 L 1481.22 1134.21 Z" fill="rgb(45,182,113)" stroke="none"/>
</g>
<path d="M 912.549 1145.07 L 912.549 1155.07" fill="none" stroke="rgb(45,45,45)" stroke-width="2"/>
<text x="912.549" y="1163.07" font-family="sans-serif" font-size="18" fill="rgb(45,45,45)" text-anchor="middle" dominant-baseline="text-before-edge">0</text>
<path d="M 1038.92 1145.07 L 1038.92 1155.07" fill="none" stroke="rgb(45,45,45)" stroke-width="2"/>
<text x="1038.92" y="1163.07" font-family="sans-serif" font-size="18" fill="rgb(45,45,45)" text-anchor="middle" dominant-baseline="text-before-edge">2</text>
<path d="M 1165.29 1145.07 L 1165.29 1155.07" fill="none" stroke="rgb(45,45,45)" stroke-width="2"/>
<text x="1165.29" y="1163.07" font-family="sans-serif" font-size="18" fill="rgb(45,45,45)" text-anchor="middle" dominant-baseline="text-before-edge">4</text>
<path d="M 1291.66 1145.07 L 1291.66 1155.07" fill="none" stroke="rgb(45,45,45)" stroke-width="2"/>
<text x="1291.66" y="1163.07" font-family="sans-serif" font-size="18" fill="rgb(45,45,45)" text-anchor="middle" dominant-baseline="text-before-edge">6</text>
<path d="M 1418.04 1145.07 L 1418.04 1155.07" fill="none" stroke="rgb(45,45,45)" stroke-width="2"/>
<text x="1418.04" y="1163.07" font-family="sans-serif" font-size="18" fill="rgb(45,45,45)" text-anchor="middle" dominant-baseline="text-before-edge">8</text>
<path d="M 1544.41 1145.07 L 1544.41 1155.07" fill="none" stroke="rgb(45,45,45)" stroke-width="2"/>
<text x="1544.41" y="1163.07" font-family="sans-serif" font-size="18" fill="rgb(45,45,45)" text-anchor="middle" dominant-baseline="text-before-edge">10</text>
<path d="M 870.956 1134.21 L 880.956 1134.21" fill="none" stroke="rgb(45,45,45)" stroke-width="2"/>
<text x="862.956" y="1134.21" font-family="sans-serif" font-size="18" fill="rgb(45,45,45)" text-anchor="end" dominant-baseline="central">0</text>
<path d="M 870.956 1107.04 L 880.956 1107.04" fill="none" stroke="rgb(45,45,45)" stroke-width="2"/>
<text x="862.956" y="1107.04" font-family="sans-serif" font-size="18" fill="rgb(45,45,45)" text-anchor="end" dominant-baseline="central">1</text>
<path d="M 870.956 1079.87 L 880.956 1079.87" fill="none" stroke="rgb(45,45,45)" stroke-width="2"/>
<text x="862.956" y="1079.87" font-family="sans-serif" font-size="18" fill="rgb(45,45,45)" text-anchor="end" dominant-baseline="central">2</text>
<path d="M 870.956 1052.71 L 880.956 1052.71" fill="none" stroke="rgb(45,45,45)" stroke-width="2"/>
<text x="862.956" y="1052.71" font-family="sans-serif" font-size="18" fill="rgb(45,45,45)" text-anchor="end" dominant-baseline="central">3</text>
<path d="M 870.956 1025.54 L 880.956 1025.54" fill="none" stroke="rgb(45,45,45)" stroke-width="2"/>
<text x="862.956" y="1025.54" font-family="sans-serif" font-size="18" fill="rgb(45,45,45)" text-anchor="end" dominant-baseline="central">4</text>
<path d="M 870.956 998.379 L 880.956 998.379" fill="none" stroke="rgb(45,45,45)" stroke-width="2"/>
<text x="862.956" y="998.379" font-family="sans-serif" font-size="18" fill="rgb(45,45,45)" text-anchor="end" dominant-baseline="central">5</text>
<path d="M 870.956 971.214 L 880.956 971.214" fill="none" stroke="rgb(45,45,45)" stroke-width="2"/>
<text x="862.956" y="971.214" font-family="sans-serif" font-size="18" fill="rgb(45,45,45)" text-anchor="end" dominant-baseline="central">6</text>
<path d="M 870.956 944.049 L 880.956 944.049" fill="none" stroke="rgb(45,45,45)" stroke-width="2"/>
<text x="862.956" y="944.049" font-family="sans-serif" font-size="18" fill="rgb(45,45,45)" text-anchor="end" dominant-baseline="central">7</text>
<path d="M 870.956 916.884 L 880.956 916.884" fill="none" stroke="rgb(45,45,45)" stroke-width="2"/>
<text x="862.956" y="916.884" font-family="sans-serif" font-size="18" fill="rgb(45,45,45)" text-anchor="end" dominant-baseline="central">8</text>
<path d="M 912.549 906.018 L 912.549 1145.07" fill="none" stroke="rgb(45,45,45)" stroke-opacity="0.15" stroke-width="1"/>
<path d="M 1038.92 906.018 L 1038.92 1145.07" fill="none" stroke="rgb(45,45,45)" stroke-opacity="0.15" stroke-width="1"/>
<path d="M 1165.29 906.018 L 1165.29 1145.07" fill="none" stroke="rgb(45,45,45)" stroke-opacity="0.15" stroke-width="1"/>
<path d="M 1291.66 906.018 L 1291.66 1145.07" fill="none" stroke="rgb(45,45,45)" stroke-opacity="0.15" stroke-width="1"/>
<path d="M 1418.04 906.018 L 1418.04 1145.07" fill="none" stroke="rgb(45,45,45)" stroke-opacity="0.15" stroke-width="1"/>
<path d="M 1544.41 906.018 L 1544.41 1145.07" fill="none" stroke="rgb(45,45,45)" stroke-opacity="0.15" stroke-width="1"/>
<path d="M 880.956 1134.21 L 1576 1134.21" fill="none" stroke="rgb(45,45,45)" stroke-opacity="0.15" stroke-width="1"/>
<path d="M 880.956 1107.04 L 1576 1107.04" fill="none" stroke="rgb(45,45,45)" stroke-opacity="0.15" stroke-width="1"/>
<path d="M 880.956 1079.87 L 1576 1079.87" fill="none" stroke="rgb(45,45,45)" stroke-opacity="0.15" stroke-width="1"/>
<path d="M 880.956 1052.71 L 1576 1052.71" fill="none" stroke="rgb(45,45,45)" stroke-opacity="0.15" stroke-width="1"/>
<path d="M 880.956 1025.54 L 1576 1025.54" fill="none" stroke="rgb(45,45,45)" stroke-opacity="0.15" stroke-width="1"/>
<path d="M 880.956 998.379 L 1576 998.379" fill="none" stroke="rgb(45,45,45)" stroke-opacity="0.15" stroke-width="1"/>
<path d="M 880.956 971.214 L 1576 971.214" fill="none" stroke="rgb(45,45,45)" stroke-opacity="0.15" stroke-width="1"/>
<path d="M 880.956 944.049 L 1576 944.049" fill="none" stroke="rgb(45,45,45)" stroke-opacity="0.15" stroke-width="1"/>
<path d="M 880.956 916.884 L 1576 916.884" fill="none" stroke="rgb(45,45,45)" stroke-opacity="0.15" stroke-width="1"/>
<path d="M 880.956 906.018 L 1576 906.018 L 1576 1145.07 L 880.956 1145.07 Z" fill="none" stroke="rgb(45,45,45)" stroke-width="2"/>
<text x="1228.48" y="890.018" font-family="sans-serif" font-size="28" font-weight="bold" fill="rgb(45,45,45)" text-anchor="middle" dominant-baseline="text-after-edge">Heatmap</text>
</svg>
